<svg xmlns="http://www.w3.org/2000/svg" id="svg" width="400" height="400" version="1.1"><g id="svgg" fill-rule="evenodd" stroke="none"><path id="path0" fill="#5398f5" d="M37.785 230.39c-6.513 1.02-11.107 2.745-14.318 5.376-3.398 2.785-15.638 6.634-21.096 6.634H0V400h160.8l.008-2.5c.01-2.891 1.262-6.825 3.148-9.89 1.511-2.456 1.529-2.806.202-4.04-1.623-1.51-3.122-3.918-4.309-6.922-1.345-3.406-2.561-5.026-5.423-7.228a13.7 13.7 0 0 1-3.628-4.199c-2.396-4.255-4.285-6.936-6.574-9.331-2.572-2.691-4.804-5.878-6.571-9.382-.882-1.749-1.882-2.982-3.355-4.136-2.674-2.096-3.551-3.21-5.132-6.52-1.009-2.112-1.982-3.318-4.584-5.68-1.817-1.65-3.618-3.668-4.002-4.486-1.289-2.741-3.257-5.469-5.546-7.686a17 17 0 0 1-3.593-5c-.987-2.091-1.754-3.104-3.03-4-3.683-2.587-4.66-3.675-4.111-4.572.736-1.203.69-1.307-1.65-3.723-1.182-1.221-2.652-3.274-3.266-4.562-1.396-2.926-2.501-3.942-3.401-3.128-1.694 1.533-6.734-5.061-7.329-9.589-.316-2.408-1.055-3.604-2.758-4.463-2.233-1.127-3.461-2.599-6.81-8.163-2.369-3.936-4.024-6.159-6.104-8.2-2.148-2.107-3.204-3.544-4.265-5.803-1.162-2.473-1.955-3.491-4.488-5.758-2.383-2.133-3.398-3.394-4.502-5.596-1.046-2.085-2.303-3.697-4.713-6.043-1.807-1.76-3.953-4.136-4.769-5.279-3.274-4.591-4.542-4.971-12.46-3.731"/><path id="path1" fill="#989797" d="M93.6 32.622v32.622l-1.572 2.314c-.864 1.273-2.819 3.47-4.344 4.882l-2.773 2.567 2.767 2.551c1.521 1.403 3.476 3.596 4.344 4.874l1.578 2.324v90.542l-1.785 2.502c-.982 1.376-2.941 3.561-4.354 4.855l-2.568 2.354 2.559 2.332c1.408 1.282 3.367 3.463 4.354 4.846l1.794 2.515.012 15.349c.009 10.851.183 16.756.592 20.149.319 2.64.583 4.929.588 5.087.004.157.783 1.159 1.73 2.225 4.229 4.762 4.107 11.659-.232 13.123-2.12.715-2.64 2.729-2.679 10.365-.063 12.743-1.154 17.043-4.819 19.004-.815.436-.778 2.063.067 2.983.532.58 3.003-.899 4.581-2.742.745-.871 1.425-1.507 1.51-1.414.424.462 1.062 4.817 1.296 8.85.251 4.315.567 5.519 1.451 5.519.505 0 .095-7.629-.762-14.17-.442-3.365-.569-6.662-.432-11.2.25-8.321.59-9.308 4.378-12.674 3.453-3.069 4.591-3.252 7.045-1.136.88.759 2.342 1.877 3.249 2.485s2.182 1.946 2.835 2.975c.674 1.063 1.711 2.091 2.402 2.382.688.289 1.431 1.025 1.713 1.696.274.651 1.393 1.782 2.487 2.513 1.093.731 2.586 2.224 3.317 3.317.731 1.094 1.862 2.213 2.513 2.487.66.277 1.406 1.023 1.683 1.683.274.651 1.393 1.782 2.487 2.513 1.093.731 2.586 2.224 3.317 3.317.731 1.094 1.862 2.213 2.513 2.487.671.282 1.407 1.025 1.696 1.713.291.691 1.319 1.728 2.382 2.402 1.029.653 2.368 1.94 2.975 2.86.608.921 1.711 2.263 2.451 2.983.963.935 1.448 1.858 1.703 3.238.716 3.875 1.666 4.365 10.351 5.342 8.571.965 8.305 1.197 8.687-7.613.268-6.171.137-6 4.58-6 4.986 0 5.533-.544 5.533-5.502 0-4.437.06-4.498 4.426-4.498 4.51 0 5.303-.545 5.925-4.078.578-3.284 1.25-3.897 4.755-4.337 5.679-.713 9.52.625 10.436 3.634 1.323 4.343 1.423 4.44 6.258 6.01 2.42.787 4.792 1.641 5.272 1.899 1.498.807 3.868-3.341 4.329-7.58.326-3.001 1.246-3.861 4.494-4.2 3.414-.357 5.086-2.053 5.469-5.548.354-3.234 1.24-4.108 4.513-4.45 3.434-.359 5.103-2.048 5.487-5.55.354-3.235 1.24-4.108 4.515-4.451 3.62-.378 4.991-1.871 5.354-5.83.329-3.589.895-4.13 4.721-4.514 3.796-.382 4.657-1.294 5.051-5.35.372-3.844.831-4.296 4.725-4.661 4.055-.38 4.874-1.209 5.275-5.339.372-3.844.831-4.296 4.725-4.661 4.055-.38 4.874-1.209 5.275-5.339.372-3.844.831-4.296 4.725-4.661 4.055-.38 4.874-1.209 5.275-5.339.372-3.84.833-4.297 4.707-4.66 2.884-.27 3.046-.342 4.68-2.078 3.194-3.394 7.619-4.763 16.02-4.955 2.874-.066 5.615.859 8.688 2.93l1.7 1.146v100.46l-1.785 2.502c-.982 1.376-2.941 3.561-4.354 4.855l-2.568 2.354 2.559 2.332c1.408 1.282 3.367 3.463 4.354 4.846l1.794 2.515V400h2.8v-85.298l1.785-2.502c.982-1.376 2.941-3.561 4.354-4.855l2.568-2.354-2.559-2.332c-1.408-1.282-3.367-3.463-4.354-4.846l-1.794-2.515V194.841l1.3-.975c3.109-2.331 5.256-3.044 21.5-7.146 4.328-1.092 5.941-1.293 12-1.491 6.41-.21 6.726-.253 3.756-.512-5.45-.476-5.618-.652-6.02-6.317l-.242-3.401 1.822-1.678c1.001-.924 3.05-2.302 4.552-3.063 2.791-1.415 4.245-2.724 6.431-5.793.68-.954 2.294-2.504 3.587-3.445 2.995-2.179 4.177-3.6 5.766-6.929.826-1.73 2.29-3.743 4.135-5.685 3.125-3.287 4.918-6.843 6.664-13.213.478-1.745 1.343-4.122 1.922-5.283l1.052-2.11 2.688-.118 2.687-.119v-2.643l-2.374-.071c-3.416-.103-5.149 2.115-6.624 8.479-1.369 5.908-4.244 11.933-6.594 13.819-1.829 1.468-3.974 4.564-4.845 6.991-.75 2.093-2.821 4.419-5.409 6.074-1.185.758-2.65 2.117-3.254 3.02-2.232 3.332-3.714 4.664-7.323 6.58-4.185 2.223-6.181 4.247-6.594 6.686-.957 5.667-4.39 7.867-18.383 11.782-6.265 1.752-9.317 2.949-11.468 4.497l-2.09 1.503-2.392-1.546c-7.039-4.549-19.606-3.795-26.348 1.581l-1.498 1.194-4.607-1.56c-10.78-3.651-23.806-4.701-24.105-1.944-.327 3.015-.538 3.595-1.31 3.595-.987 0-1.022-1.173-.135-4.542.954-3.625 1.02-5.794.188-6.239-1.354-.725-9.496-3.181-12.032-3.63-4.542-.804-6.41-2.087-7.009-4.817-.188-.857-.84-1.565-2.328-2.527-2.881-1.864-3.83-2.996-5.666-6.762l-1.6-3.283-3.298-1.629c-3.89-1.921-4.991-2.865-6.56-5.627-.992-1.744-1.424-2.123-2.855-2.502-2.978-.787-3.958-2.182-4.693-6.678-.249-1.52-1.184-4.879-2.078-7.464l-1.625-4.7-1.645.016c-.906.009-2.906.234-4.446.5-3.44.595-4.6.47-4.6-.496 0-.522.49-.848 1.751-1.166 4.009-1.01 3.956-10.969-.133-24.73l-1.211-4.075 1.566-2.925c4.233-7.905 4.306-18.129.178-24.974-1.085-1.8-1.317-2.49-.991-2.95 2.068-2.91 3.841-6.515 5.049-10.263.791-2.454 2.072-5.514 2.847-6.8s1.996-3.597 2.714-5.137c1.989-4.269 4.124-6.703 7.126-8.122 3.479-1.643 7.477-6.506 7.5-9.122.007-.83 3.303-4.195 5.46-5.575a11.9 11.9 0 0 0 3.515-3.508c1.83-2.861 3.646-4.379 7.206-6.024 2.024-.936 3.88-2.224 5.803-4.031 3.452-3.241 6.398-4.66 15.42-7.425 1.54-.472 3.565-1.339 4.499-1.926l1.7-1.067V2.7L274.4 0H272v5.184l-1.644.838c-.904.461-3.739 1.561-6.3 2.443-6.473 2.231-9.849 4.019-12.656 6.703-1.409 1.347-3.768 3.005-5.713 4.015-2.359 1.225-3.799 2.297-5 3.726-1.986 2.362-5.089 5.456-7.702 7.681-1.324 1.128-2.372 2.596-3.604 5.048-1.948 3.879-4.037 6.362-5.351 6.362-4.362 0-8.83 4.542-10.624 10.8-.158.55-.898 2.288-1.644 3.863s-1.695 4.281-2.109 6.014c-.779 3.264-2.26 6.613-3.875 8.766-.836 1.116-1.374 1.335-5.255 2.146-2.378.497-4.59 1.049-4.917 1.226-.678.368-.773.338 5.38 1.702 3.649.808 4.062.996 4.885 2.22 4.071 6.054 3.227 18.092-1.69 24.086-2.504 3.052-2.627 9.577-.181 9.577 3.403 0 3.69 15.837.312 17.236-2.167.898-3.569 2.445-4.939 5.451-1.339 2.938-1.348 2.947-4.257 4.281-3.481 1.597-4.255 2.382-5.859 5.949-1.194 2.654-1.286 2.746-3.94 3.94-3.568 1.605-4.352 2.377-5.95 5.862-1.32 2.877-1.377 2.935-4.053 4.139-3.564 1.604-4.349 2.377-5.947 5.861-1.32 2.877-1.377 2.935-4.053 4.139-3.564 1.604-4.349 2.377-5.947 5.861-1.32 2.877-1.377 2.935-4.053 4.139-3.557 1.6-4.35 2.378-5.927 5.816-1.605 3.501-2.867 4.29-7.448 4.661-1.684.137-3.913.537-4.953.89-2.256.766-2.588.548-3.549-2.339-1.027-3.087-.866-5.013.463-5.533 4.073-1.593 6.826-4.021 8.361-7.373.798-1.744 1.308-2.323 2.472-2.807 3.804-1.582 7.248-5.336 7.649-8.338.202-1.515.318-1.645 1.573-1.764 3.256-.311 8.205-5.258 8.515-8.511.117-1.222.267-1.373 1.485-1.489 3.256-.311 8.205-5.258 8.515-8.511.117-1.222.267-1.373 1.485-1.489 3.256-.311 8.205-5.258 8.515-8.511.117-1.222.267-1.373 1.485-1.489 3.378-.323 8.445-5.517 8.445-8.657V122.4h-3.722c-5.195 0-6.278 1.007-6.278 5.839 0 4.028-.135 4.161-4.202 4.161-4.658 0-5.798 1.148-5.798 5.839 0 4.028-.135 4.161-4.202 4.161-4.658 0-5.798 1.148-5.798 5.839 0 4.028-.135 4.161-4.202 4.161-4.658 0-5.798 1.148-5.798 5.839 0 4.028-.135 4.161-4.202 4.161-4.524 0-5.65 1.092-5.867 5.687-.181 3.84-.4 4.061-4.234 4.254-4.597.232-5.505 1.047-5.873 5.264-.343 3.925-.827 4.395-4.535 4.395-1.931 0-3.217.291-5.411 1.223-3.774 1.604-3.825 1.676-2.345 3.362 1.573 1.791 2.185 2.976 3.262 6.307.98 3.036 1.221 3.298 3.391 3.69 4.237.765 5.179 2.371 5.173 8.818-.006 6.108-1.083 7.8-4.965 7.8-2.155 0-3.045 1.23-3.33 4.602-.403 4.758-.868 5.233-5.526 5.645-3.768.332-4.162.697-4.483 4.148-.491 5.288-1.264 5.816-8.455 5.783-8.747-.039-8.313 1.048-8.508-21.285l-.152-17.307 1.815-2.544c.999-1.4 2.971-3.603 4.384-4.897l2.568-2.354-2.559-2.332c-1.408-1.282-3.367-3.463-4.354-4.846l-1.794-2.515V84.756l1.578-2.324c.868-1.278 2.823-3.471 4.344-4.874l2.767-2.551-2.773-2.567c-1.525-1.412-3.48-3.609-4.344-4.882L96.4 65.244V0h-2.8zM335.282 2.698l.118 2.697 2.089 1.247c1.149.686 3.849 1.731 6 2.322 5.736 1.577 10.932 4.219 13.61 6.918 1.556 1.569 3.18 2.675 5.566 3.794 3.958 1.854 5.699 3.281 7.564 6.197a11.9 11.9 0 0 0 3.515 3.508c2.743 1.755 5.154 4.493 5.872 6.668.8 2.424 3.189 5.96 4.914 7.273 1.923 1.464 4.678 7.098 6.101 12.478 1.947 7.358 3.185 9 6.789 9H400v-1.182c0-1.18-.004-1.182-2.689-1.3-3.271-.144-3.647-.644-5.943-7.918-2.206-6.987-3.437-9.393-6.347-12.407-1.798-1.863-3.063-3.683-4.26-6.133-1.695-3.466-3.375-5.388-6.873-7.86-.778-.55-2.008-1.867-2.732-2.926-1.888-2.762-3.876-4.416-7.335-6.103-1.9-.926-3.964-2.369-5.527-3.863q-4.367-4.175-13.732-7.06c-5.951-1.833-6.733-2.466-6.881-5.562C337.563.017 337.553 0 336.363 0h-1.2zM304.4 48.315c-1.713.57-5.006 3.24-6.78 5.497-1.522 1.937-2.367 2.652-3.512 2.968-4.188 1.157-10.234 2.381-12.908 2.613-6.429.556-10.422 3.065-11.255 7.068-.701 3.373-2.272 13.053-2.561 15.779-.277 2.62-.385 2.847-2.138 4.475l-3.724 3.461c-4.561 4.24-4.038 6.136 3.59 13.024 1.895 1.712 2.007 1.927 2.282 4.4.159 1.43.356 2.96.437 3.4s.427 2.78.766 5.2c1.722 12.285 2.635 13.434 11.411 14.358 2.967.313 6.473.84 7.793 1.172 1.319.331 3.209.729 4.199.883 2.659.416 3.75 1.123 5.761 3.736 1.953 2.538 5.758 5.351 7.239 5.351s5.286-2.813 7.239-5.351c2.011-2.613 3.102-3.32 5.761-3.736.99-.154 2.88-.552 4.199-.883 1.32-.332 4.801-.856 7.737-1.166 9.119-.961 9.719-1.779 11.714-15.964.279-1.98.527-3.69.553-3.8.025-.11.186-1.37.358-2.8.374-3.107 1.243-4.534 3.859-6.336 6.272-4.319 6.272-9.009 0-13.328-2.517-1.734-3.469-3.229-3.779-5.936a95 95 0 0 0-.868-6c-.097-.55-.274-1.72-.394-2.6-1.518-11.131-3.292-13.06-13.23-14.388-2.448-.327-4.878-.755-5.4-.952s-2.276-.593-3.898-.882c-3.426-.608-4.989-1.536-6.579-3.902-1.865-2.777-6.386-5.856-7.872-5.361m2.258 5.591c.628.608 1.725 1.96 2.438 3.006 1.532 2.247 4.167 4.023 7.266 4.901 14.569 4.124 18.362 7.242 20.659 16.987.597 2.53 1.241 5.25 1.433 6.045.527 2.191 2.954 5.53 5.587 7.687 2.927 2.397 2.924 2.63-.061 4.948-3.511 2.727-5.26 5.557-6.146 9.95-1.886 9.347-3.06 12.008-6.563 14.875-3.283 2.687-3.511 2.777-14.966 5.919-3.137.861-5.774 2.736-7.694 5.473-3.068 4.374-4.168 4.38-7.199.042-1.939-2.774-4.563-4.649-7.717-5.515-11.433-3.136-11.688-3.237-14.927-5.886-3.472-2.84-4.561-5.17-6.381-13.656-1.301-6.06-2.612-8.098-7.723-11.999-.805-.614-1.464-1.372-1.464-1.683s.659-1.069 1.464-1.683c5.222-3.986 6.4-5.936 7.919-13.117 1.642-7.757 1.647-7.771 4.277-10.297 3.929-3.775 10.264-6.758 17.948-8.45 1.736-.382 4.87-2.738 6.157-4.628 1.49-2.189 3.331-4.025 4.035-4.025.283 0 1.029.497 1.658 1.106M97.956 70.515c.966 1.289 2.271 2.725 2.9 3.19 1.486 1.098 1.48 1.121-.806 3.407-1.073 1.073-2.642 2.992-3.487 4.265l-1.537 2.315-.613-.932c-1.693-2.575-4.25-5.711-5.269-6.465-1.486-1.098-1.48-1.121.806-3.407 1.073-1.073 2.642-2.992 3.487-4.265l1.537-2.315.613.932c.337.513 1.403 1.986 2.369 3.275m95.706 43.221c-1.845 1.903-1.836 8.375.011 8.588 3.835.443 10.858-7.955 7.953-9.51-1.95-1.044-6.578-.508-7.964.922m-7.754 11.539c-.247.742-1.108.865-1.108.158 0-.348.285-.633.633-.633s.562.214.475.475m-10 10c-.247.742-1.108.865-1.108.158 0-.348.285-.633.633-.633s.562.214.475.475m39.619 6.865c1.493 3.063.843 7.345-1.475 9.716-1.849 1.892-3.712 6.753-5.066 13.216-1.101 5.255-1.643 6.439-4.2 9.164-2.381 2.537-3.971 5.667-5.366 10.564-.595 2.09-2.244 6.746-3.665 10.346-3.737 9.471-3.795 9.751-2.336 11.276 1.44 1.506 2.105 1.432 6.981-.774 4.218-1.908 5.946-2.524 13.035-4.643 6.923-2.069 8.739-2.957 12.084-5.91 2.763-2.44 3.958-2.931 10.842-4.457 3.633-.806 8.926-3.236 10.986-5.046 2.226-1.954 6.319-2.585 9.812-1.512 2.991.918 3.026 1.153.863 5.77-1.751 3.736-1.267 3.221-35.805 38.117-23.709 23.954-27.09 27.293-30.017 29.64-1.54 1.235-3.7 3.453-4.8 4.93-3.82 5.128-4.707 6.112-13.705 15.195-9.502 9.591-10.637 10.461-15.181 11.639-5.84 1.513-8.611.447-9.493-3.651-.562-2.607-3.8-4.92-6.889-4.92-1.707 0-2.932-1.672-2.932-4.001 0-3.051-2.948-5.999-5.999-5.999-2.843 0-4.001-1.158-4.001-4.001 0-3.051-2.948-5.999-5.999-5.999-2.843 0-4.001-1.158-4.001-4.001 0-2.63-2.723-5.693-5.449-6.128-4.994-.799-4.681-9.347.538-14.669.971-.991 2.611-2.972 3.643-4.402 1.061-1.47 3.037-3.471 4.545-4.605 1.468-1.102 3.148-2.722 3.733-3.6 1.421-2.129 4.812-5.571 6.79-6.892 3.362-2.244 7.225-5.609 9.534-8.303 5.408-6.31 62.818-63.734 64.617-64.633 5.295-2.644 7.592-3.036 8.376-1.427m-19.602 2.955c-.201 1.043-1.525 1.159-1.525.134 0-.572.257-.829.829-.829.573 0 .788.215.696.695m-30.017.18c-.247.742-1.108.865-1.108.158 0-.348.285-.633.633-.633s.562.214.475.475m20.017 9.82c-.201 1.043-1.525 1.159-1.525.134 0-.572.257-.829.829-.829.573 0 .788.215.696.695m-30.017.18c-.247.742-1.108.865-1.108.158 0-.348.285-.633.633-.633s.562.214.475.475m70.122 5.764c1.259 1.348 3.579 2.541 6.551 3.369l2.381.663.657 2.565c.905 3.532 1.325 4.444 2.844 6.174l1.316 1.5-1.457 1.26c-1.213 1.047-2.508 1.522-7.695 2.817l-6.237 1.557-1.876-.777c-3.743-1.552-4.072-3.473-1.979-11.567a672 672 0 0 0 1.457-5.686c.026-.278 2.541-2.914 2.78-2.914.159 0 .725.468 1.258 1.039m-9.904 1.175c1.022 2.142.209 8.008-1.174 8.469-1.305.435-2.027-5.576-.966-8.05.945-2.204 1.259-2.266 2.14-.419m-40.201 2.881c-.201 1.043-1.525 1.159-1.525.134 0-.572.257-.829.829-.829.573 0 .788.215.696.695m-30.017.18c-.247.742-1.108.865-1.108.158 0-.348.285-.633.633-.633s.562.214.475.475m20.017 9.82c-.201 1.043-1.525 1.159-1.525.134 0-.572.257-.829.829-.829.573 0 .788.215.696.695m-30.017.18c-.247.742-1.108.865-1.108.158 0-.348.285-.633.633-.633s.562.214.475.475m-39.251 3.384c.824 1.242 2.364 3.124 3.421 4.181 2.331 2.331 2.331 1.989 0 4.32-1.057 1.057-2.597 2.939-3.421 4.181-1.813 2.732-1.501 2.732-3.314 0-.824-1.242-2.364-3.124-3.421-4.181-2.331-2.331-2.331-1.989 0-4.32 1.057-1.057 2.597-2.939 3.421-4.181.825-1.242 1.571-2.259 1.657-2.259s.832 1.017 1.657 2.259m110.016 4.641c.447.495 1.31 1.832 1.918 2.971 1.322 2.479 2.548 3.705 5.887 5.89 2.881 1.885 3.276 2.739 1.647 3.558-1.626.817-10.827 2.766-11.72 2.483-1.211-.385-3.296-2.992-2.994-3.746.144-.361.699-2.696 1.232-5.189 1.427-6.667 2.27-7.916 4.03-5.967m30.331.344c4.52 2.124-2.087 4.152-6.933 2.128-1.721-.719-1.51-.949 1.856-2.031 3.39-1.088 2.985-1.081 5.077-.097m-110.343 1.371c.268.698-.95 4.185-1.462 4.185-.468 0-1.713-3.892-1.405-4.391.4-.646 2.601-.488 2.867.206m29.264.08c-.201 1.043-1.525 1.159-1.525.134 0-.572.257-.829.829-.829.573 0 .788.215.696.695m123.675 8.351c8.173 1.262 8.806 1.781 4.801 3.931-2.795 1.5-5.646 4.348-6.972 6.966-.836 1.649-1.437 2.25-3.086 3.086-2.618 1.326-5.588 4.296-6.914 6.914-.836 1.649-1.437 2.25-3.086 3.086-2.618 1.326-5.588 4.296-6.914 6.914-.836 1.649-1.437 2.25-3.086 3.086-2.599 1.317-5.585 4.292-6.887 6.861-.848 1.674-1.384 2.176-3.333 3.126-2.69 1.312-6.054 4.614-7.129 6.997-.569 1.263-1.21 1.886-2.735 2.659-2.552 1.292-5.895 4.635-7.187 7.187-.787 1.552-1.389 2.162-2.732 2.766-2.318 1.043-5.988 4.707-7.292 7.279-1.205 2.38-1.89 2.578-5.11 1.481l-1.804-.615.141-3.285c.336-7.806.327-7.75 1.419-9.182.727-.953 1.779-1.641 3.426-2.242 2.994-1.091 4.249-2.345 5.338-5.331.976-2.678 1.985-3.637 4.876-4.635 2.59-.894 4.279-2.607 5.202-5.275.927-2.682 2.002-3.757 4.684-4.684 2.7-.934 4.382-2.616 5.316-5.316.927-2.682 2.002-3.757 4.684-4.684 2.7-.934 4.382-2.616 5.316-5.316.927-2.682 2.002-3.757 4.684-4.684 1.17-.405 2.68-1.288 3.354-1.962s1.557-2.184 1.962-3.354c.907-2.626 1.927-3.678 4.481-4.627 2.954-1.097 4.027-1.993 5.021-4.191 1.557-3.445 3.169-3.943 9.562-2.956M146 194.951c0 1.06-1.166 1.655-1.867.953-.345-.345-.506-.825-.357-1.066.394-.637 2.224-.545 2.224.113m-8.747 7.312c1.758 2.012 1.747 2.503-.098 4.383-2.083 2.122-2.168 2.132-2.771.304-1.335-4.043.629-7.25 2.869-4.687m148.08 1.908c.295.768-.608 1.477-1.321 1.037-.464-.287-.47-.456-.037-.978.649-.782 1.074-.8 1.358-.059m-29.733.629q0 .8-.8.8c-.771 0-1.084-.783-.533-1.333.55-.551 1.333-.238 1.333.533m19.733 9.371c.295.768-.608 1.477-1.321 1.037-.464-.287-.47-.456-.037-.978.649-.782 1.074-.8 1.358-.059m-29.733.629q0 .8-.8.8c-.771 0-1.084-.783-.533-1.333.55-.551 1.333-.238 1.333.533m19.733 9.371c.295.768-.608 1.477-1.321 1.037-.464-.287-.47-.456-.037-.978.649-.782 1.074-.8 1.358-.059m-29.733.629q0 .8-.8.8c-.771 0-1.084-.783-.533-1.333.55-.551 1.333-.238 1.333.533m19.733 9.371c.295.768-.608 1.477-1.321 1.037-.464-.287-.47-.456-.037-.978.649-.782 1.074-.8 1.358-.059m-29.733.629q0 .8-.8.8c-.771 0-1.084-.783-.533-1.333.55-.551 1.333-.238 1.333.533m-120.18 10.291c-.389 1.014-1.154-.038-.812-1.116.259-.815.326-.837.673-.216.212.379.275.979.139 1.332m139.98-.663c0 1.052-1.177 1.555-1.913.819-.304-.304-.213-.665.313-1.247.922-1.018 1.6-.837 1.6.428m-29.892.447c-.247.742-1.108.865-1.108.158 0-.348.285-.633.633-.633s.562.214.475.475m19.892 9.553c0 1.052-1.177 1.555-1.913.819-.304-.304-.213-.665.313-1.247.922-1.018 1.6-.837 1.6.428m-29.8.548c0 1.266-.709 1.686-1.504.891-.517-.516-.537-.736-.113-1.247.78-.939 1.617-.754 1.617.356m-7.694 8.399 1.494 1.375-1.487.625c-2.176.914-4.55.739-5.886-.435-.095-.084.436-.779 1.179-1.546 1.707-1.762 2.801-1.766 4.7-.019m27.494 1.053c0 1.052-1.177 1.555-1.913.819-.304-.304-.213-.665.313-1.247.922-1.018 1.6-.837 1.6.428m-10.28 8.852c1.801 1.801.076 3.25-2.94 2.471-3.296-.852-3.396-1.141-.715-2.074 2.822-.984 3.044-1.008 3.655-.397m111.537 25.379c.824 1.242 2.364 3.124 3.421 4.181 2.331 2.331 2.331 1.989 0 4.32-1.057 1.057-2.597 2.939-3.421 4.181-1.813 2.732-1.501 2.732-3.314 0-.824-1.242-2.364-3.124-3.421-4.181S318 305.131 318 305s.865-1.103 1.922-2.16 2.597-2.939 3.421-4.181c.825-1.242 1.571-2.259 1.657-2.259s.832 1.017 1.657 2.259m-113.455-.433c-3.491 2.464-7.661 4.23-12.625 5.349-6.807 1.533-6.836 1.35.465 2.97 4.439.984 7.614 2.322 11.685 4.922l2.128 1.358 2.072-1.876c1.14-1.032 3.385-2.737 4.988-3.789s2.916-2.024 2.916-2.16-1.312-1.108-2.916-2.16-3.841-2.752-4.974-3.776c-1.132-1.025-2.122-1.855-2.2-1.844-.077.01-.77.463-1.539 1.006m4.677 4.216c1.496 1.123 2.864 2.175 3.039 2.338.249.232-4.587 4.195-5.788 4.743-.312.143-9.123-4.134-9.247-4.488-.09-.254 8.006-4.459 8.796-4.569.263-.036 1.703.853 3.2 1.976m-113.44.271c.291.467 1.455 1.06 2.828 1.442 2.598.722 2.708.944 1.462 2.959l-.87 1.409 1.17.936c1.438 1.15 1.326 1.196 3.332-1.352 1.835-2.332 1.972-2.388 7.039-2.862l3.6-.337-3.801-.054c-2.869-.041-4.792-.337-7.842-1.209-6.074-1.736-7.544-1.934-6.918-.932m39.678.745c-.486.34-2.466.847-4.4 1.129l-3.517.512 4.676.05c4.881.053 5.231-.054 4.858-1.48-.266-1.015-.433-1.037-1.617-.211"/><path id="path2" fill="#848484" d="M274.399 2.7v2.7l-1.7 1.067c-.934.587-2.959 1.454-4.499 1.926-9.022 2.765-11.968 4.184-15.42 7.425-1.923 1.807-3.779 3.095-5.803 4.031-3.56 1.645-5.376 3.163-7.206 6.024a11.9 11.9 0 0 1-3.515 3.508c-2.157 1.38-5.453 4.745-5.46 5.575-.023 2.616-4.021 7.479-7.5 9.122-3.002 1.419-5.137 3.853-7.126 8.122-.718 1.54-1.939 3.852-2.714 5.137-.775 1.286-2.056 4.346-2.847 6.8-1.208 3.748-2.981 7.353-5.049 10.263-.326.46-.094 1.15.991 2.95 4.128 6.845 4.055 17.069-.178 24.974l-1.566 2.925 1.211 4.075c4.089 13.761 4.142 23.72.133 24.73-1.261.318-1.751.644-1.751 1.166 0 .966 1.16 1.091 4.6.496 1.54-.266 3.54-.491 4.446-.5l1.645-.016 1.625 4.7c.894 2.585 1.829 5.944 2.078 7.464.735 4.496 1.715 5.891 4.693 6.678 1.431.379 1.863.758 2.855 2.502 1.569 2.762 2.67 3.706 6.56 5.627l3.298 1.629 1.6 3.283c1.836 3.766 2.785 4.898 5.666 6.762 1.488.962 2.14 1.67 2.328 2.527.599 2.73 2.467 4.013 7.009 4.817 2.536.449 10.678 2.905 12.032 3.63.832.445.766 2.614-.188 6.239-.887 3.369-.852 4.542.135 4.542.772 0 .983-.58 1.31-3.595.299-2.757 13.325-1.707 24.105 1.944l4.607 1.56 1.498-1.194c6.742-5.376 19.309-6.13 26.348-1.581l2.392 1.546 2.09-1.503c2.151-1.548 5.203-2.745 11.468-4.497 13.993-3.915 17.426-6.115 18.383-11.782.413-2.439 2.409-4.463 6.594-6.686 3.609-1.916 5.091-3.248 7.323-6.58.604-.903 2.069-2.262 3.254-3.02 2.588-1.655 4.659-3.981 5.409-6.074.871-2.427 3.016-5.523 4.845-6.991 2.35-1.886 5.225-7.911 6.594-13.819 1.389-5.995 3.279-8.617 6.139-8.52 1.023.035 2.084.047 2.359.028.335-.024.5-.762.5-2.236v-2.2h-2.559c-4.176 0-6.524 3.549-8.438 12.753a26.33 26.33 0 0 1-6.74 12.833c-2.394 2.505-3.149 3.623-4.081 6.044-1.453 3.775-2.15 4.677-4.695 6.068-2.694 1.473-3.731 2.469-5.123 4.919-1.468 2.582-2.9 3.881-5.22 4.734-2.539.933-5.383 2.878-6.672 4.564-3.246 4.246-5.041 5.685-11.031 8.845-1.738.917-3.858 2.22-4.712 2.896-1.793 1.42-4.289 2.44-8.181 3.34-1.511.35-3.794 1.017-5.072 1.483l-2.324.846-4.476-.869c-6.63-1.287-16.138-.987-22.713.716l-2.963.767-6.928-1.583c-8.685-1.985-12.151-3.091-14.606-4.662-2.142-1.371-4.792-2.364-13.633-5.111l-5.966-1.854-2.834-2.906c-1.558-1.599-3.868-3.569-5.134-4.378-2.158-1.379-3.784-3.166-6.399-7.029-.604-.894-2.108-2.271-3.342-3.06-3.134-2.005-5.278-4.031-6.22-5.877-.442-.867-2.193-3.051-3.892-4.855-2.612-2.773-3.233-3.707-4.021-6.051-2.541-7.561-4.592-12.624-5.834-14.405-2.656-3.805-4.089-8.299-5.566-17.453l-.957-5.934.852-3.891c1.153-5.267 1.254-18.209.18-23.034l-.7-3.143 1.841-5.456c2.094-6.205 2.566-7.225 4.372-9.457.712-.88 1.969-2.95 2.794-4.6 2.151-4.307 3.486-6.14 7.426-10.2 3.255-3.354 5.293-6.452 6.18-9.392.536-1.777 1.933-3.239 4.301-4.501 2.35-1.253 3.823-2.796 5.447-5.707 1.059-1.897 1.957-2.592 4.639-3.588 2.727-1.013 4.651-2.271 8.299-5.427 3.585-3.101 7.667-5.053 13.301-6.359 7.408-1.717 10.6-4.118 10.6-7.973V0h-4.8zm56.801-.06c0 4.086 2.537 5.959 10.848 8.01 5.18 1.279 10.341 3.847 12.752 6.345 2.011 2.085 5.431 4.244 8.22 5.191 2.618.889 3.67 1.745 4.795 3.901a13.4 13.4 0 0 0 5.763 5.702c2.238 1.134 3.317 2.469 4.243 5.251.972 2.922 2.456 5.283 5.003 7.96 2.93 3.08 4.869 6.981 6.356 12.787 2.258 8.816 4.138 11.413 8.267 11.413H400v-4.4h-2.58c-3.604 0-4.842-1.642-6.789-9-1.423-5.38-4.178-11.014-6.101-12.478-1.725-1.313-4.114-4.849-4.914-7.273-.718-2.175-3.129-4.913-5.872-6.668a11.9 11.9 0 0 1-3.515-3.508c-1.865-2.916-3.606-4.343-7.564-6.197-2.386-1.119-4.01-2.225-5.566-3.794-2.678-2.699-7.874-5.341-13.61-6.918-2.151-.591-4.851-1.636-6-2.322L335.4 5.395l-.118-2.697L335.163 0H331.2zm-27.6 36.867c-2.287 1.521-5.95 4.433-8.781 6.983-1.66 1.496-4.396 3.437-6.08 4.315l-3.061 1.595-6.739.003c-9.029.005-13.658.539-14.813 1.71-1.159 1.177-1.712 5.188-1.998 14.487-.269 8.737-.868 10.443-5.313 15.141C254.217 86.486 248.8 94.096 248.8 95s5.417 8.514 8.015 11.259c4.445 4.698 5.044 6.404 5.313 15.141.286 9.299.839 13.31 1.998 14.487 1.155 1.171 5.784 1.705 14.813 1.71l6.739.003 3.061 1.599c1.791.936 4.554 2.934 6.661 4.817 3.306 2.954 8.958 7.184 9.6 7.184s6.294-4.23 9.6-7.184c2.107-1.883 4.87-3.881 6.661-4.817l3.061-1.599 6.739-.003c9.055-.005 13.652-.538 14.842-1.722 1.096-1.091 2.086-9.046 2.093-16.818.005-5.973.943-8.255 5.332-12.967 2.45-2.631 7.872-10.269 7.872-11.09s-5.422-8.459-7.872-11.09c-4.389-4.712-5.327-6.994-5.332-12.967-.007-7.772-.997-15.727-2.093-16.818-1.19-1.184-5.787-1.717-14.842-1.722l-6.739-.003-3.077-1.601c-1.823-.948-4.538-2.908-6.661-4.806-3.517-3.146-8.989-7.213-9.649-7.172-.184.012-.785.32-1.335.686m5.464 10.907c1.135.857 2.579 2.324 3.208 3.262 1.59 2.366 3.153 3.294 6.579 3.902 1.622.289 3.376.685 3.898.882s2.952.625 5.4.952c9.938 1.328 11.712 3.257 13.23 14.388.12.88.297 2.05.394 2.6.359 2.034.623 3.857.868 6 .31 2.707 1.262 4.202 3.779 5.936 6.272 4.319 6.272 9.009 0 13.328-2.616 1.802-3.485 3.229-3.859 6.336-.172 1.43-.333 2.69-.358 2.8-.026.11-.274 1.82-.553 3.8-1.995 14.185-2.595 15.003-11.714 15.964-2.936.31-6.417.834-7.737 1.166-1.319.331-3.209.729-4.199.883-2.659.416-3.75 1.123-5.761 3.736-1.953 2.538-5.758 5.351-7.239 5.351s-5.286-2.813-7.239-5.351c-2.011-2.613-3.102-3.32-5.761-3.736-.99-.154-2.88-.552-4.199-.883-1.32-.332-4.826-.859-7.793-1.172-8.776-.924-9.689-2.073-11.411-14.358-.339-2.42-.684-4.76-.766-5.2s-.278-1.97-.437-3.4c-.275-2.473-.387-2.688-2.282-4.4-7.628-6.888-8.151-8.784-3.59-13.024l3.724-3.461c1.753-1.628 1.861-1.855 2.138-4.475.289-2.726 1.86-12.406 2.561-15.779.833-4.003 4.826-6.512 11.255-7.068 2.674-.232 8.72-1.456 12.908-2.613 1.145-.316 1.99-1.031 3.512-2.968 1.774-2.257 5.067-4.927 6.78-5.497.896-.299 2.361.36 4.664 2.099M93.437 68.623c-.845 1.273-2.414 3.192-3.487 4.265-2.286 2.286-2.292 2.309-.806 3.407 1.019.754 3.576 3.89 5.269 6.465l.613.932 1.537-2.315c.845-1.273 2.414-3.192 3.487-4.265 2.286-2.286 2.292-2.309.806-3.407-1.019-.754-3.576-3.89-5.269-6.465l-.613-.932zm91.363 56.81c0 .707.861.584 1.108-.158.087-.261-.126-.475-.475-.475a.635.635 0 0 0-.633.633m-10 10c0 .349.214.562.475.475.742-.247.865-1.108.158-1.108a.635.635 0 0 0-.633.633m19.6 9.796c0 .573.215.788.695.696 1.043-.201 1.159-1.525.134-1.525-.572 0-.829.257-.829.829m-29.6.204c0 .349.214.562.475.475.742-.247.865-1.108.158-1.108a.635.635 0 0 0-.633.633m19.6 9.796c0 .573.215.788.695.696 1.043-.201 1.159-1.525.134-1.525-.572 0-.829.257-.829.829m-29.6.204c0 .349.214.562.475.475.742-.247.865-1.108.158-1.108a.635.635 0 0 0-.633.633m59.186 7.2c-1.061 2.474-.339 8.485.966 8.05 1.383-.461 2.196-6.327 1.174-8.469-.881-1.847-1.195-1.785-2.14.419m-39.586 2.596c0 .573.215.788.695.696 1.043-.201 1.159-1.525.134-1.525-.572 0-.829.257-.829.829m-29.6.204c0 .349.214.562.475.475.742-.247.865-1.108.158-1.108a.635.635 0 0 0-.633.633m19.6 9.796c0 .573.215.788.695.696 1.043-.201 1.159-1.525.134-1.525-.572 0-.829.257-.829.829m-29.6.204c0 .349.214.562.475.475.742-.247.865-1.108.158-1.108a.635.635 0 0 0-.633.633m-41.457 3.226c-.824 1.242-2.364 3.124-3.421 4.181-2.331 2.331-2.331 1.989 0 4.32 1.057 1.057 2.597 2.939 3.421 4.181 1.813 2.732 1.501 2.732 3.314 0 .824-1.242 2.364-3.124 3.421-4.181 2.331-2.331 2.331-1.989 0-4.32-1.057-1.057-2.597-2.939-3.421-4.181-.825-1.242-1.571-2.259-1.657-2.259s-.832 1.017-1.657 2.259m110.874 4.908c-.332.642-1.04 3.207-1.574 5.7-.533 2.493-1.088 4.828-1.232 5.189-.302.754 1.783 3.361 2.994 3.746.893.283 10.094-1.666 11.72-2.483 1.629-.819 1.234-1.673-1.647-3.558-3.339-2.185-4.565-3.411-5.887-5.89-2.103-3.942-3.339-4.706-4.374-2.704m27.71.174c-3.366 1.082-3.577 1.312-1.856 2.031 2.657 1.11 5.214 1.205 7.061.262 2.103-1.072 2.088-1.349-.128-2.39-2.092-.984-1.687-.991-5.077.097m-108.133 1.068c-.308.499.937 4.391 1.405 4.391.512 0 1.73-3.487 1.462-4.185-.266-.694-2.467-.852-2.867-.206m30.606.42c0 .573.215.788.695.696 1.043-.201 1.159-1.525.134-1.525-.572 0-.829.257-.829.829m-10.624 9.609c-.149.241.012.721.357 1.066.701.702 1.867.107 1.867-.953 0-.658-1.83-.75-2.224-.113m-8.933 6.511c-1.068 1.286-.819 7.051.305 7.051 1.112 0 3.702-3.561 3.239-4.454-1.148-2.217-2.835-3.452-3.544-2.597m149.132 2.881c-.433.522-.427.691.037.978.713.44 1.616-.269 1.321-1.037-.284-.741-.709-.723-1.358.059m-29.708.037c-.551.55-.238 1.333.533 1.333q.8 0 .8-.8c0-.771-.783-1.084-1.333-.533m19.708 9.963c-.433.522-.427.691.037.978.713.44 1.616-.269 1.321-1.037-.284-.741-.709-.723-1.358.059m-29.708.037c-.551.55-.238 1.333.533 1.333q.8 0 .8-.8c0-.771-.783-1.084-1.333-.533m19.708 9.963c-.433.522-.427.691.037.978.713.44 1.616-.269 1.321-1.037-.284-.741-.709-.723-1.358.059m-29.708.037c-.551.55-.238 1.333.533 1.333q.8 0 .8-.8c0-.771-.783-1.084-1.333-.533m19.708 9.963c-.433.522-.427.691.037.978.713.44 1.616-.269 1.321-1.037-.284-.741-.709-.723-1.358.059m-29.708.037c-.551.55-.238 1.333.533 1.333q.8 0 .8-.8c0-.771-.783-1.084-1.333-.533m-119.659 9.708c-.342 1.078.423 2.13.812 1.116.136-.353.073-.953-.139-1.332-.347-.621-.414-.599-.673.216M243.8 244c-.526.582-.617.943-.313 1.247.736.736 1.913.233 1.913-.819 0-1.265-.678-1.446-1.6-.428m-29.4 1.033c0 .349.214.562.475.475.742-.247.865-1.108.158-1.108a.635.635 0 0 0-.633.633M233.8 254c-.526.582-.617.943-.313 1.247.736.736 1.913.233 1.913-.819 0-1.265-.678-1.446-1.6-.428m-29.817.62c-.424.511-.404.731.113 1.247.795.795 1.504.375 1.504-.891 0-1.11-.837-1.295-1.617-.356m-10.777 8.774c-.743.767-1.274 1.462-1.179 1.546 1.336 1.174 3.71 1.349 5.886.435l1.487-.625-1.494-1.375c-1.899-1.747-2.993-1.743-4.7.019M223.8 264c-.526.582-.617.943-.313 1.247.736.736 1.913.233 1.913-.819 0-1.265-.678-1.446-1.6-.428m-12.335 9.677c-2.681.933-2.581 1.222.715 2.074 2.617.676 3.42.413 3.42-1.12 0-1.927-.808-2.113-4.135-.954M93.308 280.37c-.71.856-2.01 1.888-2.889 2.293-1.889.871-2.045 1.733-.767 4.238 2.048 4.016 5.18 7.103 6.28 6.19.941-.781-.089-14.313-1.087-14.284-.135.004-.826.708-1.537 1.563m230.035 18.289c-.824 1.242-2.364 3.124-3.421 4.181S318 304.869 318 305s.865 1.103 1.922 2.16 2.597 2.939 3.421 4.181c1.813 2.732 1.501 2.732 3.314 0 .824-1.242 2.364-3.124 3.421-4.181 2.331-2.331 2.331-1.989 0-4.32-1.057-1.057-2.597-2.939-3.421-4.181-.825-1.242-1.571-2.259-1.657-2.259s-.832 1.017-1.657 2.259M210 302.666c-2.31 1.174-4.163 2.24-4.117 2.369.124.354 8.935 4.631 9.247 4.488 1.201-.548 6.037-4.511 5.788-4.743-1.337-1.243-5.855-4.367-6.239-4.314-.264.037-2.369 1.027-4.679 2.2m-105.52 1.414c-.728.728-.587 1.27.62 2.396 2.135 1.992 2.735 2.085 3.669.574 1.181-1.911 1.078-2.146-1.242-2.835-2.489-.739-2.445-.737-3.047-.135"/><path id="path3" fill="#1110ce" d="M284.52 9.998c-6.552.313-8.241.991-8.712 3.498-.416 2.218-6.104 5.036-12.371 6.127-3.239.564-4.988 1.673-6.037 3.827-1.159 2.38-1.483 2.672-4.782 4.302-2.261 1.117-3.503 2.071-5.103 3.918-1.163 1.343-2.654 2.912-3.313 3.486-3.221 2.807-4.961 4.928-6.438 7.85-1.494 2.954-1.779 3.273-3.79 4.246-3.081 1.492-3.45 2.065-4.558 7.077-1.133 5.122-2.869 9.731-4.626 12.285-4.212 6.123-5.195 11.546-5.177 28.586.018 18.06.875 23.368 4.552 28.19 1.502 1.969 3.379 5.984 4.663 9.969 1.489 4.625 2.975 7.014 5.49 8.82 1.487 1.069 2.366 2.178 3.715 4.687 2.614 4.862 13.437 15.534 15.755 15.534.758 0 3.615 2.284 4.182 3.344.884 1.652 3.823 3.439 7.934 4.826 4.813 1.623 8.395 3.407 10.155 5.059.738.692 2.871 2.004 4.741 2.915l3.4 1.656 15.803.121c21.914.167 26.526-.577 34.868-5.624a38.8 38.8 0 0 1 10.929-4.531c3.262-.804 5.572-2.271 6.251-3.966.77-1.921 1.535-2.571 4.954-4.202 2.424-1.157 3.75-2.116 5.353-3.868 2.708-2.962 2.995-3.248 5.606-5.59 1.615-1.447 2.548-2.754 3.676-5.148 1.631-3.46 2.756-4.783 4.418-5.195 2.438-.605 3.57-2.473 4.937-8.149 1.185-4.92 3.506-9.148 5.487-9.997 3.195-1.37 3.444-2.897 3.908-24.051.496-22.562-.582-31.219-4.101-32.938-2.198-1.074-4.2-5.587-5.699-12.847-.912-4.42-1.458-5.312-3.918-6.403-2.509-1.113-2.988-1.636-4.721-5.162-1.288-2.621-2.852-4.539-5.951-7.295-.77-.685-2.325-2.314-3.456-3.62-1.603-1.851-2.824-2.762-5.54-4.133-3.297-1.664-3.533-1.87-4.417-3.87-1.079-2.441-2.636-3.585-5.374-3.952-4.063-.544-12.723-3.905-12.863-4.991-.22-1.712-.775-2.632-2.038-3.378-2.528-1.493-29.421-2.288-47.792-1.413m23.615 30.795c1.576 1.097 4.478 3.436 6.449 5.2 2.123 1.898 4.838 3.858 6.661 4.806l3.077 1.601 6.739.003c9.055.005 13.652.538 14.842 1.722 1.096 1.091 2.086 9.046 2.093 16.818.005 5.973.943 8.255 5.332 12.967 2.45 2.631 7.872 10.269 7.872 11.09s-5.422 8.459-7.872 11.09c-4.389 4.712-5.327 6.994-5.332 12.967-.007 7.772-.997 15.727-2.093 16.818-1.19 1.184-5.787 1.717-14.842 1.722l-6.739.003-3.061 1.599c-1.791.936-4.554 2.934-6.661 4.817-3.306 2.954-8.958 7.184-9.6 7.184s-6.294-4.23-9.6-7.184c-2.107-1.883-4.87-3.881-6.661-4.817l-3.061-1.599-6.739-.003c-9.029-.005-13.658-.539-14.813-1.71-1.159-1.177-1.712-5.188-1.998-14.487-.269-8.737-.868-10.443-5.313-15.141-2.598-2.745-8.015-10.355-8.015-11.259s5.417-8.514 8.015-11.259c4.445-4.698 5.044-6.404 5.313-15.141.286-9.299.839-13.31 1.998-14.487 1.155-1.171 5.784-1.705 14.813-1.71l6.739-.003 3.061-1.595c1.684-.878 4.42-2.819 6.08-4.315 4.003-3.605 9.296-7.618 10.116-7.669.184-.012 1.624.876 3.2 1.972"/><path id="path4" fill="#17148b" d="M279.2 2.453c0 3.855-3.192 6.256-10.6 7.973-5.634 1.306-9.716 3.258-13.301 6.359-3.648 3.156-5.572 4.414-8.299 5.427-2.682.996-3.58 1.691-4.639 3.588-1.624 2.911-3.097 4.454-5.447 5.707-2.368 1.262-3.765 2.724-4.301 4.501-.887 2.94-2.925 6.038-6.18 9.392-3.94 4.06-5.275 5.893-7.426 10.2-.825 1.65-2.082 3.72-2.794 4.6-1.806 2.232-2.278 3.252-4.372 9.457L210 75.113l.7 3.143c1.074 4.825.973 17.767-.18 23.034l-.852 3.891.957 5.934c1.477 9.154 2.91 13.648 5.566 17.453 1.242 1.781 3.293 6.844 5.834 14.405.788 2.344 1.409 3.278 4.021 6.051 1.699 1.804 3.45 3.988 3.892 4.855.942 1.846 3.086 3.872 6.22 5.877 1.234.789 2.738 2.166 3.342 3.06 2.615 3.863 4.241 5.65 6.399 7.029 1.266.809 3.576 2.779 5.134 4.378l2.834 2.906 5.966 1.854c8.841 2.747 11.491 3.74 13.633 5.111 2.455 1.571 5.921 2.677 14.606 4.662l6.928 1.583 2.963-.767c6.575-1.703 16.083-2.003 22.713-.716l4.476.869 2.324-.846c1.278-.466 3.561-1.133 5.072-1.483 3.892-.9 6.388-1.92 8.181-3.34.854-.676 2.974-1.979 4.712-2.896 5.99-3.16 7.785-4.599 11.031-8.845 1.289-1.686 4.133-3.631 6.672-4.564 2.32-.853 3.752-2.152 5.22-4.734 1.392-2.45 2.429-3.446 5.123-4.919 2.545-1.391 3.242-2.293 4.695-6.068.932-2.421 1.687-3.539 4.081-6.044a26.33 26.33 0 0 0 6.74-12.833c1.914-9.204 4.262-12.753 8.438-12.753H400V69.2h-2.553c-4.129 0-6.009-2.597-8.267-11.413-1.487-5.806-3.426-9.707-6.356-12.787-2.547-2.677-4.031-5.038-5.003-7.96-.926-2.782-2.005-4.117-4.243-5.251a13.4 13.4 0 0 1-5.763-5.702c-1.125-2.156-2.177-3.012-4.795-3.901-2.789-.947-6.209-3.106-8.22-5.191-2.411-2.498-7.572-5.066-12.752-6.345-8.311-2.051-10.848-3.924-10.848-8.01V0h-52zm44.211 7.693c6.14.406 7.86.651 8.901 1.265 1.263.746 1.818 1.666 2.038 3.378.14 1.086 8.8 4.447 12.863 4.991 2.738.367 4.295 1.511 5.374 3.952.884 2 1.12 2.206 4.417 3.87 2.716 1.371 3.937 2.282 5.54 4.133 1.131 1.306 2.686 2.935 3.456 3.62 3.099 2.756 4.663 4.674 5.951 7.295 1.733 3.526 2.212 4.049 4.721 5.162 2.46 1.091 3.006 1.983 3.918 6.403 1.499 7.26 3.501 11.773 5.699 12.847 3.519 1.719 4.597 10.376 4.101 32.938-.464 21.154-.713 22.681-3.908 24.051-1.981.849-4.302 5.077-5.487 9.997-1.367 5.676-2.499 7.544-4.937 8.149-1.662.412-2.787 1.735-4.418 5.195-1.128 2.394-2.061 3.701-3.676 5.148-2.611 2.342-2.898 2.628-5.606 5.59-1.603 1.752-2.929 2.711-5.353 3.868-3.419 1.631-4.184 2.281-4.954 4.202-.679 1.695-2.989 3.162-6.251 3.966a38.8 38.8 0 0 0-10.929 4.531c-8.342 5.047-12.954 5.791-34.868 5.624L284.2 180.2l-3.4-1.656c-1.87-.911-4.003-2.223-4.741-2.915-1.76-1.652-5.342-3.436-10.155-5.059-4.111-1.387-7.05-3.174-7.934-4.826-.567-1.06-3.424-3.344-4.182-3.344-2.318 0-13.141-10.672-15.755-15.534-1.349-2.509-2.228-3.618-3.715-4.687-2.515-1.806-4.001-4.195-5.49-8.82-1.284-3.985-3.161-8-4.663-9.969-3.677-4.822-4.534-10.13-4.552-28.19-.018-17.04.965-22.463 5.177-28.586 1.757-2.554 3.493-7.163 4.626-12.285 1.108-5.012 1.477-5.585 4.558-7.077 2.011-.973 2.296-1.292 3.79-4.246 1.477-2.922 3.217-5.043 6.438-7.85.659-.574 2.15-2.143 3.313-3.486 1.6-1.847 2.842-2.801 5.103-3.918 3.299-1.63 3.623-1.922 4.782-4.302 1.049-2.154 2.798-3.263 6.037-3.827 6.267-1.091 11.955-3.909 12.371-6.127.471-2.507 2.16-3.185 8.712-3.498 9.677-.461 30.906-.38 38.891.148"/><path id="path5" fill="#bababa" d="M90 32.742v32.742l-2.435 2.658-2.436 2.658H0v2h85.473l2.381-2.5c1.309-1.375 2.778-3.068 3.263-3.762L92 65.277V0h-2zm8-.104v32.639l.883 1.261c.485.694 1.954 2.387 3.263 3.762l2.381 2.5h91.564l4.255-1.026c3.014-.727 4.47-1.279 4.996-1.896 1.302-1.527 2.525-4.4 3.015-7.078.261-1.43.908-3.95 1.438-5.6s1.444-4.53 2.032-6.4c.587-1.87 1.408-4.071 1.824-4.891.718-1.416.751-2.6.652-23.6L214.2.2l-2.091-.121-2.09-.12-.13 23.52c-.124 22.383-.173 23.734-1.014 27.921a243 243 0 0 0-1.625 9.27c-1.038 6.824-1.287 7.169-6.253 8.679L197 70.564l-46.057.126-46.057.126-2.443-2.666L100 65.484V0h-2zm117.682-13.847.118 18.792 1.007 1.006c1.027 1.027 6.427 2.108 8.013 1.605.884-.281 2.912-3.167 4.09-5.822 1.253-2.823 2.66-4.45 5.539-6.405 1.46-.992 2.844-2.376 3.678-3.679 1.746-2.728 3.703-4.405 6.994-5.994 1.716-.829 3.613-2.217 5.279-3.864 2.775-2.742 6.337-4.687 11.8-6.443 1.54-.495 3.835-1.349 5.1-1.898l2.3-.998V0h-1.2c-1.199 0-1.2.002-1.2 2.386 0 2.833.319 2.592-6.294 4.763-7.856 2.58-9.498 3.552-12.701 7.52-.616.764-2.506 1.995-4.744 3.091-4.194 2.054-4.476 2.304-6.343 5.64-1.07 1.912-1.758 2.624-3.385 3.501-2.709 1.461-4.642 3.675-5.715 6.547-1.807 4.835-3.12 5.664-6.394 4.036-3.538-1.761-3.37-.8-3.557-20.292L217.902 0h-2.339zM340 2.391c0 2.934.13 3.039 6.461 5.198 7.466 2.547 9.638 3.686 12.892 6.766 1.988 1.882 3.897 3.238 5.894 4.188 3.165 1.504 4.86 3.007 6.886 6.103.7 1.071 2.146 2.518 3.211 3.215 3.129 2.047 4.245 3.341 5.937 6.881 1.231 2.576 2.259 4 4.487 6.214 3.074 3.054 4.494 5.893 6.621 13.244 1.482 5.118 2.203 5.979 5.122 6.119l2.489.119.001-1.319V57.8l-2.369.134c-2.922.165-3.112-.07-4.63-5.734-2.016-7.52-4.735-12.354-7.433-13.21-.921-.292-2.599-2.905-3.623-5.642-1.042-2.785-3.002-5.006-5.691-6.447-1.498-.803-2.325-1.594-3.054-2.922-2.008-3.653-2.685-4.271-6.961-6.36-3.31-1.616-4.34-2.33-5.171-3.586-1.935-2.924-6.228-5.242-13.743-7.421-4.4-1.276-4.526-1.394-4.526-4.261V0H340zm-36.593 60.002c-.629.656-1.967 1.501-2.975 1.879-1.024.383-3.068 1.799-4.632 3.207-2.854 2.571-5.171 3.737-9.093 4.578-2.986.641-4.466 2.165-5.281 5.441-.976 3.919-2.23 6.409-4.484 8.902-1.094 1.21-2.311 3.062-2.704 4.116s-1.149 2.429-1.677 3.058c-.529.628-.961 1.27-.961 1.426s.432.798.961 1.426c.528.629 1.284 2.005 1.679 3.058.394 1.054 1.67 2.979 2.833 4.278 2.493 2.783 3.46 4.645 4.462 8.59.99 3.899 2.096 4.983 6.133 6.015 3.964 1.013 5.597 1.877 8.532 4.517 1.32 1.187 3.224 2.467 4.232 2.844 1.008.378 2.346 1.223 2.975 1.879 1.423 1.486 1.763 1.486 3.186 0 .629-.656 1.967-1.501 2.975-1.879 1.008-.377 2.912-1.657 4.232-2.844 2.936-2.64 4.568-3.504 8.532-4.517 4.175-1.067 5.312-2.256 6.187-6.473.824-3.968 2.233-6.777 4.663-9.294 1.061-1.1 2.299-2.81 2.75-3.8s1.124-2.264 1.495-2.831c.649-.991.635-1.094-.334-2.6-.555-.863-1.236-2.289-1.513-3.169s-1.462-2.663-2.636-3.962c-2.512-2.782-3.473-4.63-4.491-8.635-.909-3.581-2.161-4.782-6.009-5.763-3.827-.976-5.576-1.912-8.444-4.518-1.43-1.3-3.424-2.672-4.432-3.05s-2.346-1.223-2.975-1.879c-.628-.656-1.345-1.193-1.593-1.193s-.965.537-1.593 1.193M0 78.2v1h85.129l2.436 2.658L90 84.516v90.968l-2.435 2.658-2.436 2.658H0v2h85.473l2.381-2.5c1.309-1.375 2.778-3.068 3.263-3.762l.883-1.261V84.723l-.883-1.261c-.485-.694-1.954-2.387-3.263-3.762l-2.381-2.5H0zm102.146 1.5c-1.309 1.375-2.778 3.068-3.263 3.762L98 84.723v90.57l1.371 1.853c.754 1.02 2.266 2.729 3.359 3.799l1.988 1.945 4.69.761c2.579.419 4.826.846 4.993.95s2.171-.686 4.452-1.754 5.082-2.247 6.224-2.619c2.794-.911 3.829-1.805 5.034-4.349 1.108-2.34 4.058-5.234 5.774-5.665 1.823-.457 3.173-1.712 4.219-3.921 1.375-2.905 2.709-4.386 4.976-5.527 3.278-1.649 3.985-2.279 5.024-4.473 1.375-2.905 2.709-4.386 4.976-5.527 3.278-1.649 3.985-2.279 5.024-4.473 1.375-2.905 2.709-4.386 4.976-5.527 3.278-1.649 3.985-2.279 5.024-4.473 1.375-2.905 2.709-4.386 4.976-5.527 3.314-1.667 3.915-2.229 5.27-4.927 1.486-2.957 2.935-4.357 5.85-5.655 2.368-1.054 3.079-1.776 4.123-4.184.997-2.3 3.377-4.68 5.677-5.677 2.483-1.076 3.143-1.755 4.397-4.523.599-1.32 1.927-3.33 2.952-4.466 2.99-3.314 3.723-5.426 4.004-11.534l.238-5.2-1.295-2.6L205 79.4l-4.2-1.07-4.2-1.07-46.037-.03-46.036-.03zm98.829.945c5.49 1.67 5.701 2.07 5.174 9.793l-.378 5.545-2.586 2.522c-1.599 1.56-3.195 3.65-4.185 5.478-1.233 2.276-2.013 3.211-3.4 4.069-3.636 2.25-4.907 3.407-6.693 6.091-1.315 1.975-2.452 3.137-4.066 4.152-3.06 1.924-4.642 3.487-6.321 6.243-1.03 1.691-2.048 2.731-3.672 3.752-3.067 1.929-4.648 3.49-6.328 6.248-1.03 1.691-2.048 2.731-3.672 3.752-3.067 1.929-4.648 3.49-6.328 6.248-1.03 1.691-2.048 2.731-3.672 3.752-3.067 1.929-4.648 3.49-6.328 6.248-1.03 1.691-2.048 2.731-3.672 3.752-3.066 1.928-4.648 3.49-6.326 6.245-1.086 1.782-2.057 2.741-4.104 4.053-2.596 1.665-4.178 3.263-6.922 6.996-.989 1.345-1.899 2.024-3.704 2.765-1.316.54-3.82 1.583-5.565 2.318l-3.174 1.335-5.026-.618-5.027-.619-2.5-2.628-2.5-2.628V84.516l2.443-2.666 2.443-2.666 46.057.126 46.057.126zm3.213 43.775c-.381.615.14 1.012.654.498q.43-.429.02-.679c-.223-.139-.527-.057-.674.181m190.237 6.333c-.222.414-1.326 3.516-2.454 6.894-2.608 7.809-3 8.548-6.169 11.612-1.875 1.812-3.121 3.501-4.382 5.937-1.849 3.572-3.291 5.21-6.133 6.97-.943.584-2.203 1.791-2.8 2.684-2.186 3.266-3.754 4.714-6.658 6.149-1.603.792-3.562 2.033-4.353 2.757l-1.437 1.316.526 1.995c1.501 5.69.817 5.512 21.735 5.649l17.7.115v-1.941l-16.7-.214c-19.206-.246-18.594-.166-20.144-2.609-1.971-3.108-1.271-4.337 3.479-6.114 2.744-1.027 5.24-3.183 6.208-5.364.835-1.88 2.037-3.054 3.867-3.777 1.957-.773 4.627-3.985 5.654-6.8.565-1.551 1.405-2.913 2.301-3.728 5.683-5.175 5.813-5.398 8.559-14.683 1.542-5.211 1.533-5.201 4.425-5.201 2.346 0 2.351-.003 2.351-1.2V130h-2.586c-2.123 0-2.658.135-2.989.753m-200.158 3.514c-.461.46-.292.933.333.933.33 0 .6-.27.6-.6 0-.625-.473-.794-.933-.333m-10 10c-.461.46-.292.933.333.933.33 0 .6-.27.6-.6 0-.625-.473-.794-.933-.333m19.286 9.633c-.549.605-1.214 1.964-1.479 3.02-.837 3.337-2.438 4.8-5.862 5.355-1.7.276-3.465 2.133-4.37 4.6-.828 2.252-3.168 4.491-5.393 5.158-2.043.612-3.776 2.475-4.426 4.757-.661 2.325-2.902 4.568-5.233 5.239-.984.283-2.343 1.068-3.018 1.743s-1.46 2.034-1.743 3.018c-.302 1.05-1.122 2.397-1.982 3.257s-2.207 1.68-3.257 1.982c-.984.283-2.343 1.068-3.018 1.743s-1.46 2.034-1.743 3.018c-.669 2.326-2.913 4.57-5.239 5.239-.984.283-2.343 1.068-3.018 1.743s-1.46 2.034-1.743 3.018c-.655 2.276-2.913 4.563-5.172 5.24-2.2.659-4.168 2.627-4.827 4.827-.699 2.334-3.015 4.582-5.37 5.212-2.29.612-3.948 2.3-4.637 4.721-.685 2.407-2.953 4.634-5.381 5.283-2.207.591-3.416 1.958-4.653 5.265-.964 2.577-2.825 4.401-5.223 5.119-3.14.941-3.504 3.237-.625 3.938 4.416 1.076 6.718 3.312 7.289 7.081.306 2.024 1.053 2.752 3.178 3.1 3.691.604 6.262 3.205 6.822 6.9.306 2.024 1.053 2.752 3.178 3.1 3.691.604 6.262 3.205 6.822 6.9.306 2.024 1.053 2.752 3.178 3.1 3.598.589 6.205 3.149 6.801 6.679.619 3.662 2.926 3.52 4.793-.295 1.135-2.321 2.837-3.879 5.034-4.611 1.863-.621 4.245-2.976 5.209-5.149 1.025-2.313 2.393-3.724 4.484-4.625 2.43-1.047 4.189-2.848 5.445-5.575 1.291-2.803 1.954-3.465 4.641-4.632 2.7-1.172 4.055-2.529 5.36-5.368 1.289-2.803 1.952-3.465 4.64-4.632 2.672-1.16 4.076-2.541 5.242-5.154 1.299-2.911 1.911-3.536 4.743-4.839 2.851-1.311 4.223-2.708 5.158-5.25.828-2.252 3.169-4.491 5.393-5.158 1.996-.598 3.711-2.4 4.607-4.842.828-2.252 3.168-4.491 5.393-5.158 1.996-.598 3.711-2.4 4.607-4.842.814-2.214 3.093-4.423 5.29-5.124 2.069-.661 4.152-2.665 4.152-3.995 0-2.968 3.427-6.406 6.386-6.406.986 0 3.214-1.884 3.214-2.718 0-1.673-4.773-1.771-12.283-.254-.591.12-1.16.806-1.721 2.075-1.997 4.517-5.861 6.306-15.396 7.129-4.024.347-5.082.887-6.405 3.264-3.404 6.116-17.838 8.295-22.292 3.366-4.701-5.204-1.853-20.293 4.247-22.499 1.836-.663 2.476-2.052 2.825-6.13.799-9.342 2.821-13.725 6.95-15.067 2.014-.654 2.184-1.049 2.911-6.766.662-5.204.393-7.2-.971-7.2-.284 0-.964.495-1.512 1.1m-29.286.367c-.461.46-.292.933.333.933.33 0 .6-.27.6-.6 0-.625-.473-.794-.933-.333m-10 10c-.461.46-.292.933.333.933.33 0 .6-.27.6-.6 0-.625-.473-.794-.933-.333m60.603 3.549c-1.864 8.222-1.586 8.976 2.952 8.021 4.366-.919 4.282-.792 2.081-3.151-1.07-1.147-2.232-2.626-2.581-3.286s-.78-1.295-.958-1.411-.486-.649-.684-1.184c-.328-.887-.4-.798-.81 1.011m-70.603 6.451c-.461.46-.292.933.333.933.33 0 .6-.27.6-.6 0-.625-.473-.794-.933-.333m-10 10c-.461.46-.292.933.333.933.33 0 .6-.27.6-.6 0-.625-.473-.794-.933-.333m-33.867 1.962c-1.43.294-3.196.542-3.924.552-1.501.021-4.648 2.712-7.133 6.097l-1.402 1.909.13 15.307.129 15.306 1 1.999c2.914 5.826 10.121 5.262 12.185-.954.776-2.337 2.633-4.204 5.015-5.045 2.366-.835 4.238-2.704 4.998-4.993.81-2.441 2.35-4.215 4.802-5.532 5.046-2.712 5.082-9.399.065-11.929-2.208-1.113-3.476-2.647-5.263-6.366-3.102-6.456-4.885-7.524-10.602-6.351M0 188.2v1h85.129l2.436 2.658L90 194.516l.004 14.642c.004 16.651.422 24.243 1.697 30.842 1.032 5.34 1.063 4.403-.298 9.2-.907 3.2-1.125 4.969-1.379 11.2-.323 7.919-1.317 12.485-3.254 14.947-1.709 2.173-2.591 1.43-6.58-5.547-2.096-3.665-3.464-5.509-5.785-7.8-2.219-2.189-3.492-3.876-4.713-6.242-1.325-2.57-2.292-3.797-4.661-5.918-2.344-2.097-3.261-3.254-4.245-5.357-.953-2.039-2.086-3.499-4.72-6.086-1.906-1.872-4.098-4.3-4.87-5.396s-2.425-2.695-3.672-3.552l-2.267-1.558-5.728.902c-9.467 1.489-14.303 3.169-17.953 6.236-3.316 2.785-13.108 5.771-18.928 5.771-2.381 0-2.648.081-2.648.8 0 2.694 18.654-1.897 23.372-5.752 3.385-2.766 7.858-4.425 14.723-5.462 7.815-1.181 8.877-.855 12.15 3.735.816 1.143 2.962 3.519 4.769 5.279 2.41 2.346 3.667 3.958 4.713 6.043 1.104 2.202 2.119 3.463 4.502 5.596 2.533 2.267 3.326 3.285 4.488 5.758 1.061 2.259 2.117 3.696 4.265 5.803 2.09 2.051 3.731 4.26 6.135 8.258 4.898 8.145 6.144 9.008 9.09 6.293 2.629-2.423 3.327-5.42 3.761-16.151.316-7.803 1.094-11.531 3.14-15.057.553-.953.55-1.214-.031-2.667-2.286-5.712-3.057-14.113-3.068-33.414-.01-17.326.389-15.39-4.155-20.162l-2.381-2.5H0zm350-.151c-2.09.409-5.69 1.182-8 1.718s-5.217 1.177-6.46 1.424c-1.26.25-3.385 1.128-4.8 1.984l-2.54 1.536-.102 50.281-.101 50.28.884 1.264c.487.695 1.956 2.389 3.265 3.764l2.381 2.5H400v-2h-65.129l-2.436-2.658-2.435-2.658V194.788l1.3-.795c2.013-1.231 4.123-1.848 8.9-2.6 2.42-.381 6.02-.964 8-1.294 2.834-.474 8.727-.637 27.7-.768l24.1-.166V187.2l-23.1.053c-20.747.047-23.487.128-26.9.796m-233.274 2.117c.896.972 2.177 2.854 2.848 4.183 1.441 2.855 3.135 4.874 5.388 6.426.901.62 2.041 1.845 2.534 2.723l.896 1.596-.896 1.323c-.493.727-1.976 2.157-3.296 3.178-2.147 1.66-3.018 2.737-5.667 7-.409.657-1.337 1.557-2.063 2-3.859 2.353-5.515 4.008-7.87 7.865-2.201 3.605-4.654 3.6-7.194-.014l-1.206-1.715-.141-15.065-.14-15.066 2.436-2.657 2.437-2.657 4.104-.384c2.257-.211 4.576-.411 5.153-.443.769-.043 1.483.412 2.677 1.707m190.806 1.865c-3.995.424-7.147 1.986-9.401 4.659-1.147 1.361-2.491 2.372-4.305 3.239-2.478 1.183-2.711 1.413-3.856 3.81-1.502 3.144-3.052 4.685-6.288 6.253-2.315 1.121-2.591 1.399-3.716 3.754-1.497 3.135-3.049 4.679-6.277 6.242-2.29 1.109-2.592 1.411-3.701 3.701-1.563 3.228-3.107 4.78-6.242 6.277-2.355 1.125-2.633 1.401-3.754 3.716-1.476 3.045-3.132 4.817-5.558 5.944-2.494 1.159-3.559 2.215-4.617 4.574-1.059 2.361-3.337 4.675-6.05 6.143-1.074.581-2.316 1.651-2.76 2.377-2.947 4.822-3.475 5.35-8.287 8.286-.758.462-1.812 1.72-2.475 2.954-1.416 2.637-3.651 4.925-5.928 6.07-2.627 1.321-2.998 1.788-5.527 6.957-1.295 2.647-2.689 5.232-3.097 5.744l-.743.931-1.375-.81c-.756-.445-3.085-1.456-5.175-2.247-3.963-1.499-6.065-3.185-7.486-6.001-2.795-5.54-8.844-5.873-11.5-.632-1.129 2.229-3.096 3.838-5.95 4.869-2.48.895-4.063 2.528-4.683 4.829-.605 2.246-2.892 4.514-5.171 5.127-6.531 1.759-6.754 11.482-.307 13.396 4.114 1.222 21.904.856 27.531-.567 6.031-1.524 13.566-5.688 13.566-7.496 0-.897.699-.586.952.423.278 1.105 4.206 4.858 7.184 6.864l2.053 1.383h90.884l2.381-2.5c1.309-1.375 2.778-3.069 3.265-3.764l.884-1.264-.101-50.33-.102-50.331-2.928-1.506c-3.207-1.649-4.635-1.784-11.34-1.074m10.068 1.482 2.2 1.087.102 50.44.101 50.441-2.437 2.659-2.437 2.66h-90.277l-2.926-2.331c-3.955-3.15-3.801-2.853-4.325-8.294l-.465-4.822 2.81-5.786c2.872-5.914 3.644-6.962 5.997-8.153 1.79-.905 4.613-3.77 5.593-5.676.928-1.805 2.53-3.377 4.407-4.325 1.725-.871 4.598-3.743 5.471-5.47.961-1.899 2.069-3.027 4.529-4.61 2.618-1.684 4.115-3.276 5.682-6.044.873-1.543 1.811-2.5 3.485-3.552 3.11-1.956 4.685-3.508 6.37-6.275 1.03-1.691 2.048-2.731 3.672-3.752 3.067-1.929 4.648-3.49 6.328-6.248 1.03-1.691 2.048-2.731 3.672-3.752 3.067-1.929 4.648-3.49 6.328-6.248 1.03-1.691 2.048-2.731 3.672-3.752 3.067-1.929 4.648-3.49 6.328-6.248 1.03-1.691 2.048-2.731 3.672-3.752 2.851-1.793 4.676-3.509 5.741-5.396 1.12-1.985 2.938-2.797 7.507-3.355 5.808-.709 6.761-.652 9.2.554m-52.8 11.92c0 .349.214.562.475.475.742-.247.865-1.108.158-1.108a.635.635 0 0 0-.633.633m-10 10c0 .349.214.562.475.475.742-.247.865-1.108.158-1.108a.635.635 0 0 0-.633.633m-10 10c0 .707.861.584 1.108-.158.087-.261-.126-.475-.475-.475a.635.635 0 0 0-.633.633m-142.07 31.869c-4.381 2.677-5.877 10.302-4.296 21.898.224 1.65.553 6.027.73 9.726.42 8.791 1.972 11.256 7.599 12.067 1.01.145 3.217.611 4.904 1.035 3.578.901 22.485 1.148 25.708.337 8.13-2.048 7.861-11.58-.435-15.431-2.373-1.101-2.743-1.481-3.95-4.05-1.159-2.468-3.492-4.762-6.05-5.95-2.373-1.101-2.743-1.481-3.95-4.05-1.159-2.468-3.492-4.762-6.05-5.95-2.373-1.101-2.743-1.481-3.95-4.05-2.326-4.954-7.066-7.533-10.26-5.582m5.205 3.315c1.112 1 2.419 2.485 2.906 3.3 1.192 1.998 3.11 4.021 4.505 4.751 1.661.87 4.512 3.6 5.514 5.281 1.174 1.968 3.098 3.993 4.486 4.719 1.74.911 4.596 3.691 5.664 5.513 1.111 1.895 2.979 3.729 5.073 4.978 2.015 1.203 5.117 4.726 5.117 5.812 0 1.273-2.504 4.014-4.586 5.022-1.729.837-2.125.858-12.899.671-20.141-.348-22.745-1.494-22.884-10.064-.036-2.2-.235-6.07-.442-8.6-1.141-13.943-.359-19.678 3.05-22.359 1.54-1.211 2.229-1.062 4.496.976m91.42 15.735c2.359 3.479 4.518 5.375 7.753 6.807 3.857 1.707 3.727 1.452 3.437 6.789-.287 5.261-.259 5.201-3.204 6.886-9.435 5.398-32.423 5.534-35.713.212-1.388-2.246-.205-4.523 3.272-6.297 2.022-1.031 4.819-3.829 5.851-5.853.893-1.751 2.194-2.919 6.031-5.416 1.502-.977 3.342-2.659 4.4-4.02 3.359-4.325 4.74-4.174 8.173.892m-46.444 28.677c-3.833 1.677-8.169 2.171-19.072 2.171-14.804 0-18.072.685-20.539 4.308-1.782 2.615-1.7 2.94 1.577 6.318 2.853 2.939 4.342 4.993 5.698 7.86.387.818 2.19 2.836 4.007 4.486 2.602 2.362 3.575 3.568 4.584 5.68 1.581 3.31 2.458 4.424 5.132 6.52 1.473 1.154 2.473 2.387 3.355 4.136 1.767 3.504 3.999 6.691 6.571 9.382 2.289 2.395 4.178 5.076 6.574 9.331a13.7 13.7 0 0 0 3.628 4.199c2.862 2.202 4.078 3.822 5.423 7.228 1.187 3.004 2.686 5.412 4.309 6.922 1.327 1.234 1.309 1.584-.202 4.04-2.85 4.632-4.325 12.39-2.356 12.39.718 0 .8-.267.8-2.589 0-2.837.779-4.973 3.35-9.187 1.873-3.07 1.845-3.331-.65-6.038-1.371-1.489-2.863-3.822-4.3-6.725-2.023-4.088-2.428-4.629-5.04-6.734-2.28-1.837-3.142-2.866-4.363-5.208-2.075-3.978-3.535-6.059-6.397-9.119-2.778-2.97-4.42-5.265-5.986-8.364-.682-1.352-2.271-3.285-4.229-5.148-2.387-2.27-3.485-3.689-4.595-5.934-1.165-2.358-2.103-3.533-4.672-5.852-2.613-2.358-3.488-3.463-4.667-5.894-.959-1.977-2.298-3.858-3.951-5.548-3.288-3.363-3.167-3.939 1.3-6.171 4.229-2.114 5.532-2.289 16.973-2.285 9.219.003 11.236-.111 15.22-.861l4.594-.865 7.006.727c4.313.447 12.391.836 21.007 1.011l14 .285 4.138 1.227c2.275.675 5.155 1.831 6.4 2.569l2.262 1.342.102 42.702.102 42.701 2.098-.121 2.098-.121.102-42.229.102-42.228-.902-.847c-5.478-5.146-13.554-7.293-27.429-7.295-10.435-.001-21.985-.93-27.598-2.221-3.032-.697-3.876-.689-5.564.049m69.625 3.554c-1.129.76-3.152 2.4-4.494 3.643l-2.442 2.26V400h2.4v-85.043l1.3-1.222c.715-.672 2.261-1.967 3.436-2.879l2.136-1.656h90.257l2.436 2.658 2.435 2.658V400h2v-85.277l-.883-1.261c-.485-.694-1.954-2.387-3.263-3.762l-2.381-2.5h-90.884zm109.61 1.117c-1.309 1.375-2.778 3.068-3.263 3.762l-.883 1.261V400h2v-85.484l2.435-2.658 2.436-2.658H400v-2h-65.473z"/><path id="path6" fill="#acacac" d="M92 32.638v32.639l-.883 1.261c-.485.694-1.954 2.387-3.263 3.762l-2.381 2.5H0v.967c0 .531.225 1.057.5 1.168.4.161.4.208 0 .233-.275.018-.5.482-.5 1.032v1h85.473l2.381 2.5c1.309 1.375 2.778 3.068 3.263 3.762L92 84.723v90.554l-.883 1.261c-.485.694-1.954 2.387-3.263 3.762l-2.381 2.5H0v.967c0 .531.225 1.057.5 1.168.4.161.4.208 0 .233-.275.018-.5.482-.5 1.032v1h85.473l2.381 2.5c4.544 4.772 4.145 2.836 4.155 20.162.011 19.301.782 27.702 3.068 33.414.581 1.453.584 1.714.031 2.667-2.046 3.526-2.824 7.254-3.14 15.057-.443 10.931-1.125 13.768-3.917 16.278l-1.934 1.739.938.707c1.238.934 2.062.482 4.146-2.279 1.916-2.538 2.356-5.538 2.41-16.445.039-7.636.559-9.65 2.679-10.365 4.339-1.464 4.461-8.361.232-13.123-.947-1.066-1.726-2.068-1.73-2.225s-.269-2.447-.588-5.087c-.409-3.393-.583-9.298-.592-20.149l-.012-15.349-1.785-2.502c-.982-1.376-2.941-3.561-4.354-4.855l-2.568-2.354 2.559-2.332c1.408-1.282 3.367-3.463 4.354-4.846l1.794-2.515V84.756l-1.578-2.324c-.868-1.278-2.823-3.471-4.344-4.874l-2.767-2.551 2.773-2.567c1.525-1.412 3.48-3.609 4.344-4.882l1.572-2.314V32.622C93.6.267 93.593 0 92.8 0s-.8.267-.8 32.638m4.4-.016v32.622l1.572 2.314c.864 1.273 2.819 3.47 4.344 4.882l2.773 2.567-2.767 2.551c-1.521 1.403-3.476 3.596-4.344 4.874L96.4 84.756v90.542l1.785 2.502c.982 1.376 2.941 3.561 4.354 4.855l2.568 2.354-2.559 2.332c-1.408 1.282-3.38 3.482-4.384 4.888l-1.824 2.557.152 17.307c.195 22.333-.239 21.246 8.508 21.285 7.191.033 7.964-.495 8.455-5.783.321-3.451.715-3.816 4.483-4.148 4.658-.412 5.123-.887 5.526-5.645.285-3.372 1.175-4.602 3.33-4.602 3.882 0 4.959-1.692 4.965-7.8.006-6.447-.936-8.053-5.173-8.818-2.17-.392-2.411-.654-3.391-3.69-1.077-3.331-1.689-4.516-3.262-6.307-1.48-1.686-1.429-1.758 2.345-3.362 2.194-.932 3.48-1.223 5.411-1.223 3.708 0 4.192-.47 4.535-4.395.368-4.217 1.276-5.032 5.873-5.264 3.834-.193 4.053-.414 4.234-4.254.217-4.595 1.343-5.687 5.867-5.687 4.073 0 4.202-.129 4.202-4.202 0-4.658 1.148-5.798 5.839-5.798 4.028 0 4.161-.135 4.161-4.202 0-4.658 1.148-5.798 5.839-5.798 4.028 0 4.161-.135 4.161-4.202 0-4.658 1.148-5.798 5.839-5.798 4.028 0 4.161-.135 4.161-4.202 0-4.797 1.091-5.798 6.319-5.798h3.681v1.414c0 3.14-5.067 8.334-8.445 8.657-1.218.116-1.368.267-1.485 1.489-.31 3.253-5.259 8.2-8.515 8.511-1.218.116-1.368.267-1.485 1.489-.31 3.253-5.259 8.2-8.515 8.511-1.217.116-1.368.267-1.484 1.484-.311 3.256-5.258 8.205-8.511 8.515-1.261.121-1.376.249-1.578 1.765-.401 3.002-3.845 6.756-7.649 8.338-1.164.484-1.674 1.063-2.472 2.807-1.535 3.352-4.288 5.78-8.361 7.373-1.329.52-1.49 2.446-.463 5.533.961 2.887 1.293 3.105 3.549 2.339 1.04-.353 3.269-.753 4.953-.89 4.581-.371 5.843-1.16 7.448-4.661 1.577-3.438 2.37-4.216 5.927-5.816 2.676-1.204 2.733-1.262 4.053-4.139 1.598-3.484 2.383-4.257 5.947-5.861 2.676-1.204 2.733-1.262 4.053-4.139 1.598-3.484 2.383-4.257 5.947-5.861 2.676-1.204 2.733-1.262 4.053-4.139 1.598-3.485 2.382-4.257 5.95-5.862 2.654-1.194 2.746-1.286 3.94-3.94 1.604-3.567 2.378-4.352 5.859-5.949 2.909-1.334 2.918-1.343 4.257-4.281 1.37-3.006 2.772-4.553 4.939-5.451 3.378-1.399 3.091-17.236-.312-17.236-2.446 0-2.323-6.525.181-9.577 4.917-5.994 5.761-18.032 1.69-24.086-.823-1.224-1.236-1.412-4.885-2.22-6.153-1.364-6.058-1.334-5.38-1.702.327-.177 2.539-.729 4.917-1.226 3.881-.811 4.419-1.03 5.255-2.146 1.615-2.153 3.096-5.502 3.875-8.766.414-1.733 1.363-4.439 2.109-6.014s1.486-3.313 1.644-3.863C215.2 46.542 219.668 42 224.03 42c1.314 0 3.403-2.483 5.351-6.362 1.232-2.452 2.28-3.92 3.604-5.048 2.613-2.225 5.716-5.319 7.702-7.681 1.201-1.429 2.641-2.501 5-3.726 1.945-1.01 4.304-2.668 5.713-4.015 2.807-2.684 6.183-4.472 12.656-6.703 2.561-.882 5.396-1.982 6.3-2.443L272 5.184V0h-2.4v5.091l-2.3.998c-1.265.549-3.56 1.403-5.1 1.898-5.463 1.756-9.025 3.701-11.8 6.443-1.666 1.647-3.563 3.035-5.279 3.864-3.291 1.589-5.248 3.266-6.994 5.994-.834 1.303-2.218 2.687-3.678 3.679-2.879 1.955-4.286 3.582-5.539 6.405-1.178 2.655-3.206 5.541-4.09 5.822-1.586.503-6.986-.578-8.013-1.605l-1.007-1.006-.118-18.792c-.11-17.389-.17-18.791-.8-18.791-.636 0-.675 1.511-.575 22.203.101 21.128.07 22.275-.653 23.7-.417.823-1.24 3.027-1.827 4.897-.588 1.87-1.502 4.75-2.032 6.4s-1.177 4.17-1.438 5.6c-.49 2.678-1.713 5.551-3.015 7.078-.526.617-1.982 1.169-4.996 1.896l-4.255 1.026h-91.564l-2.381-2.5c-1.309-1.375-2.778-3.068-3.263-3.762L98 65.277V32.638C98 .267 97.993 0 97.2 0s-.8.267-.8 32.622M337.681 2.486c.148 3.096.93 3.729 6.881 5.562q9.365 2.885 13.732 7.06c1.563 1.494 3.627 2.937 5.527 3.863 3.459 1.687 5.447 3.341 7.335 6.103.724 1.059 1.954 2.376 2.732 2.926 3.498 2.472 5.178 4.394 6.873 7.86 1.197 2.45 2.462 4.27 4.26 6.133 2.91 3.014 4.141 5.42 6.347 12.407 2.296 7.274 2.672 7.774 5.943 7.918 2.633.116 2.689.098 2.689-.881 0-.945-.133-1.005-2.489-1.118-2.919-.14-3.64-1.001-5.122-6.119-2.127-7.351-3.547-10.19-6.621-13.244-2.228-2.214-3.256-3.638-4.487-6.214-1.692-3.54-2.808-4.834-5.937-6.881-1.065-.697-2.511-2.144-3.211-3.215-2.026-3.096-3.721-4.599-6.886-6.103-1.997-.95-3.906-2.306-5.894-4.188-3.254-3.08-5.426-4.219-12.892-6.766C340.13 5.43 340 5.325 340 2.391V0h-2.438zm-34.339 51.42c-.628.608-1.698 1.921-2.377 2.919-1.287 1.89-4.421 4.246-6.157 4.628-7.684 1.692-14.019 4.675-17.948 8.45-2.63 2.526-2.635 2.54-4.277 10.297-1.519 7.181-2.697 9.131-7.919 13.117-.805.614-1.464 1.372-1.464 1.683s.659 1.069 1.464 1.683c5.111 3.901 6.422 5.939 7.723 11.999 1.82 8.486 2.909 10.816 6.381 13.656 3.239 2.649 3.494 2.75 14.927 5.886 3.154.866 5.778 2.741 7.717 5.515 3.031 4.338 4.131 4.332 7.199-.042 1.92-2.737 4.557-4.612 7.694-5.473 11.455-3.142 11.683-3.232 14.966-5.919 3.503-2.867 4.677-5.528 6.563-14.875.886-4.393 2.635-7.223 6.146-9.95 2.985-2.318 2.988-2.551.061-4.948-2.633-2.157-5.06-5.496-5.587-7.687-.192-.795-.836-3.515-1.433-6.045-2.297-9.745-6.09-12.863-20.659-16.987-3.099-.878-5.734-2.654-7.266-4.901-1.547-2.269-3.383-4.112-4.096-4.112-.283 0-1.029.497-1.658 1.106m3.251 8.487c.629.656 1.967 1.502 2.975 1.879 1.008.378 3.002 1.75 4.432 3.05 2.868 2.606 4.617 3.542 8.444 4.518 3.848.981 5.1 2.182 6.009 5.763 1.018 4.005 1.979 5.853 4.491 8.635 1.174 1.299 2.36 3.082 2.636 3.962s.958 2.306 1.513 3.169c.969 1.506.983 1.609.334 2.6-.371.567-1.044 1.841-1.495 2.831s-1.689 2.7-2.75 3.8c-2.43 2.517-3.839 5.326-4.663 9.294-.875 4.217-2.012 5.406-6.187 6.473-3.964 1.013-5.596 1.877-8.532 4.517-1.32 1.187-3.224 2.467-4.232 2.844-1.008.378-2.346 1.223-2.975 1.879-1.423 1.486-1.763 1.486-3.186 0-.629-.656-1.967-1.501-2.975-1.879-1.008-.377-2.912-1.657-4.232-2.844-2.935-2.64-4.568-3.504-8.532-4.517-4.037-1.032-5.143-2.116-6.133-6.015-1.002-3.945-1.969-5.807-4.462-8.59-1.163-1.299-2.439-3.224-2.833-4.278s-1.151-2.429-1.679-3.058c-.529-.628-.961-1.27-.961-1.426s.432-.798.961-1.426c.528-.629 1.283-2.005 1.677-3.058.393-1.054 1.61-2.906 2.704-4.116 2.254-2.493 3.508-4.983 4.484-8.902.815-3.276 2.295-4.8 5.281-5.441 3.922-.841 6.239-2.007 9.093-4.578 1.564-1.408 3.608-2.824 4.632-3.207 1.008-.378 2.346-1.223 2.975-1.879.628-.656 1.345-1.193 1.593-1.193s.965.537 1.593 1.193M200.8 78.33l4.2 1.07 1.296 2.6 1.295 2.6-.238 5.2c-.281 6.108-1.014 8.22-4.004 11.534-1.025 1.136-2.353 3.146-2.952 4.466-1.254 2.768-1.914 3.447-4.397 4.523-2.3.997-4.68 3.377-5.677 5.677-1.044 2.408-1.755 3.13-4.123 4.184-2.915 1.298-4.364 2.698-5.85 5.655-1.355 2.698-1.956 3.26-5.27 4.927-2.267 1.141-3.601 2.622-4.976 5.527-1.039 2.194-1.746 2.824-5.024 4.473-2.267 1.141-3.601 2.622-4.976 5.527-1.039 2.194-1.746 2.824-5.024 4.473-2.267 1.141-3.601 2.622-4.976 5.527-1.039 2.194-1.746 2.824-5.024 4.473-2.267 1.141-3.601 2.622-4.976 5.527-1.046 2.209-2.396 3.464-4.219 3.921-1.716.431-4.666 3.325-5.774 5.665-1.205 2.544-2.24 3.438-5.034 4.349-1.142.372-3.943 1.551-6.224 2.619s-4.284 1.857-4.452 1.754c-.167-.104-2.414-.531-4.993-.95l-4.69-.761-1.988-1.945c-1.093-1.07-2.605-2.779-3.359-3.799L98 175.293v-90.57l.883-1.261c.485-.694 1.954-2.387 3.263-3.762l2.381-2.5 46.036.03 46.037.03zm.826 34.484c2.905 1.555-4.118 9.953-7.953 9.51-1.847-.213-1.856-6.685-.011-8.588 1.386-1.43 6.014-1.966 7.964-.922m3.216 12.104c-.514.514-1.035.117-.654-.498.147-.238.451-.32.674-.181q.41.25-.02.679m189.435 3.621c-.914 1.394-1.732 3.495-2.684 6.888-1.766 6.293-3.513 9.725-6.606 12.979-1.845 1.942-3.309 3.955-4.135 5.685-1.589 3.329-2.771 4.75-5.766 6.929-1.293.941-2.907 2.491-3.587 3.445-2.186 3.069-3.64 4.378-6.431 5.793-1.502.761-3.551 2.139-4.552 3.063l-1.822 1.678.242 3.401c.402 5.665.57 5.841 6.02 6.317 2.97.259 2.654.302-3.756.512-6.059.198-7.672.399-12 1.491-16.244 4.102-18.391 4.815-21.5 7.146l-1.3.975v100.457l1.785 2.502c.982 1.376 2.941 3.561 4.354 4.855l2.568 2.354-2.559 2.332c-1.408 1.282-3.367 3.463-4.354 4.846l-1.794 2.515v42.649c0 42.382.005 42.649.8 42.649s.8-.267.8-42.638v-42.639l.883-1.261c.485-.694 1.954-2.387 3.263-3.762l2.381-2.5H400v-.967c0-.531-.225-1.057-.5-1.168-.4-.161-.4-.208 0-.233.275-.018.5-.482.5-1.032v-1h-65.473l-2.381-2.5c-1.309-1.375-2.778-3.069-3.265-3.764l-.884-1.264.101-50.28.102-50.281 2.54-1.536c1.415-.856 3.54-1.734 4.8-1.984 1.243-.247 4.15-.886 6.46-1.419 11.34-2.621 10.666-2.572 35.358-2.572H400v-.967c0-.531-.225-1.057-.5-1.168-.4-.161-.4-.208 0-.233.275-.018.5-.475.5-1.016v-.985l-17.7-.115c-20.918-.137-20.234.041-21.735-5.649l-.526-1.995 1.437-1.316c.791-.724 2.75-1.965 4.353-2.757 2.904-1.435 4.472-2.883 6.658-6.149.597-.893 1.857-2.1 2.8-2.684 2.842-1.76 4.284-3.398 6.133-6.97 1.261-2.436 2.507-4.125 4.382-5.937 3.169-3.064 3.561-3.803 6.169-11.612 2.74-8.203 2.344-7.647 5.443-7.647H400v-2.4h-2.554c-2.238 0-2.63.116-3.169.939M195.2 134.6c0 .33-.27.6-.6.6-.625 0-.794-.473-.333-.933.46-.461.933-.292.933.333m16.371 7.146c-5.51 1.943-4.837 1.331-36.424 33.185-16.617 16.758-31.293 31.729-32.613 33.269-2.309 2.694-6.172 6.059-9.534 8.303-1.978 1.321-5.369 4.763-6.79 6.892-.585.878-2.265 2.498-3.733 3.6-1.508 1.134-3.484 3.135-4.545 4.605-1.032 1.43-2.672 3.411-3.643 4.402-5.219 5.322-5.532 13.87-.538 14.669 2.726.435 5.449 3.498 5.449 6.128 0 2.843 1.158 4.001 4.001 4.001 3.051 0 5.999 2.948 5.999 5.999 0 2.843 1.158 4.001 4.001 4.001 3.051 0 5.999 2.948 5.999 5.999 0 2.329 1.225 4.001 2.932 4.001 3.089 0 6.327 2.313 6.889 4.92.882 4.098 3.653 5.164 9.493 3.651 4.544-1.178 5.679-2.048 15.181-11.639 8.998-9.083 9.885-10.067 13.705-15.195 1.1-1.477 3.26-3.695 4.8-4.93 2.927-2.347 6.308-5.686 30.017-29.64 34.538-34.896 34.054-34.381 35.805-38.117 2.163-4.617 2.128-4.852-.863-5.77-3.493-1.073-7.586-.442-9.812 1.512-2.06 1.81-7.353 4.24-10.986 5.046-6.884 1.526-8.079 2.017-10.842 4.457-3.345 2.953-5.161 3.841-12.084 5.91-7.089 2.119-8.817 2.735-13.035 4.643-4.876 2.206-5.541 2.28-6.981.774-1.459-1.525-1.401-1.805 2.336-11.276 1.421-3.6 3.07-8.256 3.665-10.346 1.395-4.897 2.985-8.027 5.366-10.564 2.557-2.725 3.099-3.909 4.2-9.164 1.354-6.463 3.217-11.324 5.066-13.216 2.318-2.371 2.968-6.653 1.475-9.716-.706-1.448-.913-1.468-3.956-.394M185.2 144.6c0 .33-.27.6-.6.6-.625 0-.794-.473-.333-.933.46-.461.933-.292.933.333m20.926 9.3c.465.937.452 1.839-.09 6.1-.727 5.717-.897 6.112-2.911 6.766-4.129 1.342-6.151 5.725-6.95 15.067-.349 4.078-.989 5.467-2.825 6.13-6.1 2.206-8.948 17.295-4.247 22.499 4.454 4.929 18.888 2.75 22.292-3.366 1.323-2.377 2.381-2.917 6.405-3.264 9.535-.823 13.399-2.612 15.396-7.129.561-1.269 1.13-1.955 1.721-2.075 7.51-1.517 12.283-1.419 12.283.254 0 .834-2.228 2.718-3.214 2.718-2.959 0-6.386 3.438-6.386 6.406 0 1.33-2.083 3.334-4.152 3.995-2.197.701-4.476 2.91-5.29 5.124-.896 2.442-2.611 4.244-4.607 4.842-2.225.667-4.565 2.906-5.393 5.158-.896 2.442-2.611 4.244-4.607 4.842-2.224.667-4.565 2.906-5.393 5.158-.935 2.542-2.307 3.939-5.158 5.25-2.832 1.303-3.444 1.928-4.743 4.839-1.166 2.613-2.57 3.994-5.242 5.154-2.688 1.167-3.351 1.829-4.64 4.632-1.305 2.839-2.66 4.196-5.36 5.368-2.687 1.167-3.35 1.829-4.641 4.632-1.256 2.727-3.015 4.528-5.445 5.575-2.091.901-3.459 2.312-4.484 4.625-.964 2.173-3.346 4.528-5.209 5.149-2.197.732-3.899 2.29-5.034 4.611-1.867 3.815-4.174 3.957-4.793.295-.596-3.53-3.203-6.09-6.801-6.679-2.125-.348-2.872-1.076-3.178-3.1-.56-3.695-3.131-6.296-6.822-6.9-2.125-.348-2.872-1.076-3.178-3.1-.56-3.695-3.131-6.296-6.822-6.9-2.125-.348-2.872-1.076-3.178-3.1-.571-3.769-2.873-6.005-7.289-7.081-2.879-.701-2.515-2.997.625-3.938 2.398-.718 4.259-2.542 5.223-5.119 1.237-3.307 2.446-4.674 4.653-5.265 2.428-.649 4.696-2.876 5.381-5.283.689-2.421 2.347-4.109 4.637-4.721 2.355-.63 4.671-2.878 5.37-5.212.659-2.2 2.627-4.168 4.827-4.827 2.259-.677 4.517-2.964 5.172-5.24.283-.984 1.068-2.343 1.743-3.018s2.034-1.46 3.018-1.743c2.326-.669 4.57-2.913 5.239-5.239.283-.984 1.068-2.343 1.743-3.018s2.034-1.46 3.018-1.743c1.05-.302 2.397-1.122 3.257-1.982s1.68-2.207 1.982-3.257c.283-.984 1.068-2.343 1.743-3.018s2.034-1.46 3.018-1.743c2.331-.671 4.572-2.914 5.233-5.239.65-2.282 2.383-4.145 4.426-4.757 2.225-.667 4.565-2.906 5.393-5.158.905-2.467 2.67-4.324 4.37-4.6 3.424-.555 5.025-2.018 5.862-5.355.491-1.957 2.061-4.12 2.991-4.12.283 0 .76.495 1.061 1.1m-30.926.7c0 .33-.27.6-.6.6-.625 0-.794-.473-.333-.933.46-.461.933-.292.933.333m48.041 6.814c-.682.778-1.245 1.453-1.249 1.5s-.66 2.606-1.457 5.686c-2.093 8.094-1.764 10.015 1.979 11.567l1.876.777 6.237-1.557c5.187-1.295 6.482-1.77 7.695-2.817l1.457-1.26-1.316-1.5c-1.519-1.73-1.939-2.642-2.844-6.174l-.657-2.565-2.381-.663c-2.972-.828-5.292-2.021-6.551-3.369-1.236-1.325-1.304-1.316-2.789.375M165.2 164.6c0 .33-.27.6-.6.6-.625 0-.794-.473-.333-.933.46-.461.933-.292.933.333m61.164 3.389c.178.116.61.751.958 1.411.349.66 1.511 2.139 2.581 3.286 2.201 2.359 2.285 2.232-2.081 3.151-4.538.955-4.816.201-2.952-8.021.41-1.809.482-1.898.81-1.011.198.535.506 1.067.684 1.184M155.2 174.6c0 .33-.27.6-.6.6-.625 0-.794-.473-.333-.933.46-.461.933-.292.933.333m-10 10c0 .33-.27.6-.6.6-.625 0-.794-.473-.333-.933.46-.461.933-.292.933.333m-27.759 2.68c1.258 1.16 2.361 2.801 3.561 5.3 1.787 3.719 3.055 5.253 5.263 6.366 5.017 2.53 4.981 9.217-.065 11.929-2.452 1.317-3.992 3.091-4.802 5.532-.76 2.289-2.632 4.158-4.998 4.993-2.382.841-4.239 2.708-5.015 5.045-2.064 6.216-9.271 6.78-12.185.954l-1-1.999-.129-15.306-.13-15.307 1.402-1.909c2.485-3.385 5.632-6.076 7.133-6.097.728-.01 2.494-.258 3.924-.552 4.444-.912 5.001-.829 7.041 1.051m191.959 3.71c-6.215.523-9.419 1.763-12.208 4.727-1.634 1.736-1.796 1.808-4.68 2.078-3.898.366-4.352.821-4.718 4.735-.38 4.055-1.209 4.874-5.339 5.275-1.992.193-3.175.515-3.655.995s-.802 1.663-.995 3.655c-.401 4.13-1.22 4.959-5.275 5.339-3.894.365-4.353.817-4.725 4.661-.401 4.13-1.22 4.959-5.275 5.339-3.894.365-4.353.817-4.725 4.661-.394 4.056-1.255 4.968-5.051 5.35-3.826.384-4.392.925-4.721 4.514-.363 3.959-1.734 5.452-5.354 5.83-3.275.343-4.161 1.216-4.515 4.451-.384 3.502-2.053 5.191-5.487 5.55-3.306.345-4.182 1.221-4.527 4.527-.359 3.428-2.048 5.102-5.539 5.487-3.178.351-4.087 1.214-4.41 4.184-.461 4.239-2.831 8.387-4.329 7.58-.48-.258-2.852-1.112-5.272-1.899-4.835-1.57-4.935-1.667-6.258-6.01-.916-3.009-4.757-4.347-10.436-3.634-3.505.44-4.177 1.053-4.755 4.337-.622 3.533-1.415 4.078-5.925 4.078-4.366 0-4.426.061-4.426 4.498 0 4.958-.547 5.502-5.533 5.502-4.443 0-4.312-.171-4.58 6-.382 8.81-.116 8.578-8.687 7.613-8.685-.977-9.635-1.467-10.351-5.342-.255-1.38-.74-2.303-1.703-3.238-.74-.72-1.843-2.062-2.451-2.983-.607-.92-1.946-2.207-2.975-2.86-1.063-.674-2.091-1.711-2.382-2.402-.289-.688-1.025-1.431-1.696-1.713-.651-.274-1.782-1.393-2.513-2.487-.731-1.093-2.224-2.586-3.317-3.317-1.094-.731-2.213-1.862-2.487-2.513-.277-.66-1.023-1.406-1.683-1.683-.651-.274-1.782-1.393-2.513-2.487-.731-1.093-2.224-2.586-3.317-3.317-1.094-.731-2.213-1.862-2.487-2.513-.282-.671-1.025-1.407-1.713-1.696-.691-.291-1.728-1.319-2.402-2.382-.653-1.029-1.928-2.368-2.835-2.975a41 41 0 0 1-3.249-2.485c-2.454-2.116-3.592-1.933-7.045 1.136-3.788 3.366-4.128 4.353-4.378 12.674-.137 4.538-.01 7.835.432 11.2.343 2.624.743 6.93.887 9.57.405 7.417 3.532 12.883 7.781 13.601.943.159 3.532.809 5.754 1.444 3.05.872 4.974 1.168 7.842 1.209l3.801.055-3.8.345c-4.773.433-5.175.617-7.196 3.294l-1.654 2.191.746 1.455.746 1.454 1.379-2.024c2.555-3.752 5.692-4.424 20.635-4.424 11.138 0 13.413-.253 18.816-2.088 2.406-.818 2.554-.822 5.6-.172 6.539 1.396 17.065 2.253 27.728 2.258 13.958.006 22.015 2.144 27.504 7.299l.903.849-.103 42.327c-.099 40.084-.067 42.327.596 42.327.662 0 .7-2.303.7-42.757v-42.757l2.442-2.26c1.342-1.243 3.365-2.883 4.494-3.643l2.053-1.383h90.884l2.381 2.5c1.309 1.375 2.778 3.068 3.263 3.762l.883 1.261v42.639c0 42.371.005 42.638.8 42.638s.8-.267.8-42.649v-42.649l-1.785-2.502c-.982-1.376-2.941-3.561-4.354-4.855l-2.568-2.354 2.559-2.332c1.408-1.282 3.367-3.463 4.354-4.846l1.794-2.515v-100.46l-1.7-1.136c-4.215-2.818-6.178-3.244-12.5-2.712m9.472 2.115 2.928 1.506.102 50.331.101 50.33-.884 1.264c-.487.695-1.956 2.389-3.265 3.764l-2.381 2.5h-90.884l-2.053-1.383c-2.978-2.006-6.906-5.759-7.184-6.864-.253-1.009-.952-1.32-.952-.423 0 1.808-7.535 5.972-13.566 7.496-5.627 1.423-23.417 1.789-27.531.567-6.447-1.914-6.224-11.637.307-13.396 2.279-.613 4.566-2.881 5.171-5.127.62-2.301 2.203-3.934 4.683-4.829 2.854-1.031 4.821-2.64 5.95-4.869 2.656-5.241 8.705-4.908 11.5.632 1.421 2.816 3.523 4.502 7.486 6.001 2.09.791 4.419 1.802 5.175 2.247l1.375.81.743-.931c.408-.512 1.802-3.097 3.097-5.744 2.529-5.169 2.9-5.636 5.527-6.957 2.277-1.145 4.512-3.433 5.928-6.07.663-1.234 1.717-2.492 2.475-2.954 4.812-2.936 5.34-3.464 8.287-8.286.444-.726 1.686-1.796 2.76-2.377 2.713-1.468 4.991-3.782 6.05-6.143 1.058-2.359 2.123-3.415 4.617-4.574 2.426-1.127 4.082-2.899 5.558-5.944 1.121-2.315 1.399-2.591 3.754-3.716 3.135-1.497 4.679-3.049 6.242-6.277 1.109-2.29 1.411-2.592 3.701-3.701 3.228-1.563 4.78-3.107 6.277-6.242 1.125-2.355 1.401-2.633 3.716-3.754 3.236-1.568 4.786-3.109 6.288-6.253 1.145-2.397 1.378-2.627 3.856-3.81 1.814-.867 3.158-1.878 4.305-3.239 4.159-4.933 14.608-6.738 20.741-3.585m-46.304.504c-1.256.621-1.84 1.266-2.53 2.793-.994 2.198-2.067 3.094-5.021 4.191-2.554.949-3.574 2.001-4.481 4.627-.405 1.17-1.288 2.68-1.962 3.354s-2.184 1.557-3.354 1.962c-2.682.927-3.757 2.002-4.684 4.684-.934 2.7-2.616 4.382-5.316 5.316-2.682.927-3.757 2.002-4.684 4.684-.934 2.7-2.616 4.382-5.316 5.316-2.682.927-3.757 2.002-4.684 4.684-.923 2.668-2.612 4.381-5.202 5.275-2.891.998-3.9 1.957-4.876 4.635-1.089 2.986-2.344 4.24-5.338 5.331-1.647.601-2.699 1.289-3.426 2.242-1.092 1.432-1.083 1.376-1.419 9.182l-.141 3.285 1.804.615c3.22 1.097 3.905.899 5.11-1.481 1.304-2.572 4.974-6.236 7.292-7.279 1.343-.604 1.945-1.214 2.732-2.766 1.292-2.552 4.635-5.895 7.187-7.187 1.525-.773 2.166-1.396 2.735-2.659 1.075-2.383 4.439-5.685 7.129-6.997 1.949-.95 2.485-1.452 3.333-3.126 1.302-2.569 4.288-5.544 6.887-6.861 1.649-.836 2.25-1.437 3.086-3.086 1.326-2.618 4.296-5.588 6.914-6.914 1.649-.836 2.25-1.437 3.086-3.086 1.326-2.618 4.296-5.588 6.914-6.914 1.649-.836 2.25-1.437 3.086-3.086 1.326-2.618 4.177-5.466 6.972-6.966 4.005-2.15 3.372-2.669-4.801-3.931-5.229-.807-5.065-.811-7.032.163m-6.66 11.666c-.247.742-1.108.865-1.108.158 0-.348.285-.633.633-.633s.562.214.475.475m-10 10c-.247.742-1.108.865-1.108.158 0-.348.285-.633.633-.633s.562.214.475.475m-10 10c-.247.742-1.108.865-1.108.158 0-.348.285-.633.633-.633s.562.214.475.475m-138.392 31.886c2.103 1.078 4.441 3.521 5.474 5.723 1.207 2.569 1.577 2.949 3.95 4.05 2.558 1.188 4.891 3.482 6.05 5.95 1.207 2.569 1.577 2.949 3.95 4.05 2.558 1.188 4.891 3.482 6.05 5.95 1.207 2.569 1.577 2.949 3.95 4.05 8.296 3.851 8.565 13.383.435 15.431-3.223.811-22.13.564-25.708-.337-1.687-.424-3.894-.89-4.904-1.035-5.627-.811-7.179-3.276-7.599-12.067-.177-3.699-.506-8.076-.73-9.726-2.105-15.442 2.091-25.623 9.082-22.039m109.425 41.903c1.133 1.024 3.371 2.724 4.974 3.776s2.916 2.024 2.916 2.16-1.312 1.108-2.916 2.16-3.848 2.757-4.988 3.789l-2.072 1.876-2.128-1.358c-4.071-2.6-7.246-3.938-11.685-4.922-7.301-1.62-7.272-1.437-.465-2.97 4.964-1.119 9.134-2.885 12.625-5.349.769-.543 1.462-.996 1.539-1.006.078-.011 1.068.819 2.2 1.844m-71.207 4.605c.373 1.426.023 1.533-4.858 1.48l-4.676-.05 3.517-.512c1.934-.282 3.914-.789 4.4-1.129 1.184-.826 1.351-.804 1.617.211"/><path id="path7" fill="#d4d4d4" d="M88.4 32.7v32.7l-1.848 1.9-1.847 1.9H42.353C.267 69.2 0 69.205 0 70s.267.8 42.565.8h42.564l2.436-2.658L90 65.484V32.742C90 .267 89.993 0 89.2 0s-.8.267-.8 32.7m11.6.042v32.742l2.443 2.666 2.443 2.666 46.057-.126L197 70.564l3.997-1.215c4.966-1.51 5.215-1.855 6.253-8.679.408-2.679 1.139-6.85 1.625-9.27.841-4.187.89-5.539 1.014-27.9l.13-23.5h-3.155l-.172 26.5c-.171 26.237-.676 38.358-1.641 39.376-.248.262-2.733 1.117-5.521 1.9l-5.071 1.424h-89.164l-1.847-1.9-1.848-1.9V32.7c0-32.433-.007-32.7-.8-32.7s-.8.267-.8 32.742m118.067-15.55c.187 19.492.019 18.531 3.557 20.292 3.274 1.628 4.587.799 6.394-4.036 1.073-2.872 3.006-5.086 5.715-6.547 1.627-.877 2.315-1.589 3.385-3.501 1.867-3.336 2.149-3.586 6.343-5.64 2.238-1.096 4.128-2.327 4.744-3.091 3.203-3.968 4.845-4.94 12.701-7.52 6.613-2.171 6.294-1.93 6.294-4.763V0h-2.762l-.119 2.438-.119 2.438-6.322 2.13c-7.878 2.655-8.447 3.029-11.206 7.363-.713 1.119-1.413 1.549-3.838 2.355-3.666 1.219-5.993 3.341-7.005 6.388-.625 1.881-.823 2.089-2.553 2.679-3.274 1.115-5.159 3.279-6.284 7.218-.375 1.315-1.046 2.788-1.49 3.272l-.807.882-1.563-.798c-2.542-1.297-3.135-6.002-3.133-24.865L220 0h-2.098zM342.8 2.351c0 2.867.126 2.985 4.526 4.261 7.515 2.179 11.808 4.497 13.743 7.421.831 1.256 1.861 1.97 5.171 3.586 4.276 2.089 4.953 2.707 6.961 6.36.729 1.328 1.556 2.119 3.054 2.922 2.689 1.441 4.649 3.662 5.691 6.447 1.024 2.737 2.702 5.35 3.623 5.642 2.698.856 5.417 5.69 7.433 13.21 1.504 5.614 1.704 5.867 4.52 5.719 2.154-.112 2.285-.179 2.405-1.219l.126-1.1h-2.619c-2.531 0-2.627-.037-2.864-1.1-2.461-11.06-4.232-14.693-8.134-16.692-2.127-1.089-2.482-1.584-3.404-4.758-1.1-3.784-2.333-5.276-5.695-6.893-1.772-.853-2.937-1.658-2.937-2.031 0-2.723-3.808-6.377-7.885-7.566-2.105-.614-3.244-1.624-4.561-4.048-1.157-2.129-3.232-3.265-10.012-5.481L345.4 4.893l-.119-2.447C345.163.031 345.147 0 343.981 0c-1.174 0-1.181.014-1.181 2.351M0 80c0 .795.267.8 42.353.8h42.352l1.847 1.9 1.848 1.9v90.8l-1.848 1.9-1.847 1.9H42.353C.267 179.2 0 179.205 0 180s.267.8 42.565.8h42.564l2.436-2.658L90 175.484V84.516l-2.435-2.658-2.436-2.658H42.565C.267 79.2 0 79.205 0 80m102.443 1.85L100 84.516v90.993l2.5 2.628 2.5 2.628 5.027.619 5.026.618 3.174-1.335a802 802 0 0 1 5.565-2.318c1.805-.741 2.715-1.42 3.704-2.765 2.744-3.733 4.326-5.331 6.922-6.996 2.047-1.312 3.018-2.271 4.104-4.053 1.678-2.755 3.26-4.317 6.326-6.245 1.624-1.021 2.642-2.061 3.672-3.752 1.68-2.758 3.261-4.319 6.328-6.248 1.624-1.021 2.642-2.061 3.672-3.752 1.68-2.758 3.261-4.319 6.328-6.248 1.624-1.021 2.642-2.061 3.672-3.752 1.68-2.758 3.261-4.319 6.328-6.248 1.624-1.021 2.642-2.061 3.672-3.752 1.679-2.756 3.261-4.319 6.321-6.243 1.614-1.015 2.751-2.177 4.066-4.152 1.786-2.684 3.057-3.841 6.693-6.091 1.387-.858 2.167-1.793 3.4-4.069.99-1.828 2.586-3.918 4.185-5.478l2.586-2.522.378-5.545c.527-7.723.316-8.123-5.174-9.793L197 79.436l-46.057-.126-46.057-.126zm97.191.405c6.312 1.766 6.094 1.469 5.573 7.625-.377 4.445-.463 4.767-1.477 5.52-2.91 2.16-4.195 3.683-5.908 7-1.748 3.384-1.965 3.629-4.317 4.881-2.934 1.563-4.786 3.316-5.947 5.63-1.155 2.3-2.234 3.397-4.196 4.265-2.312 1.022-4.669 3.263-5.803 5.517-1.319 2.622-2.258 3.625-4.197 4.483-2.312 1.022-4.669 3.263-5.803 5.517-1.319 2.622-2.258 3.625-4.197 4.483-2.312 1.022-4.669 3.263-5.803 5.517-1.352 2.688-2.156 3.514-4.571 4.695-2.431 1.19-4.751 3.574-5.812 5.974-.858 1.939-1.861 2.878-4.483 4.197-2.258 1.136-4.495 3.492-5.524 5.817-.873 1.975-1.462 2.53-4.284 4.038-2.533 1.353-4.865 3.785-6.248 6.513-.954 1.883-1.172 2.053-3.725 2.901a104 104 0 0 0-5.312 1.961c-2.581 1.051-2.637 1.055-7.665.625l-5.065-.433-1.619-1.79-1.618-1.791-.016-45.4-.017-45.4 1.848-1.9 1.847-1.9h89.142zm195.248 50.646c-.229.276-.975 2.391-1.658 4.7-2.746 9.285-2.876 9.508-8.559 14.683-.896.815-1.736 2.177-2.301 3.728-1.027 2.815-3.697 6.027-5.654 6.8-1.83.723-3.032 1.897-3.867 3.777-.968 2.181-3.464 4.337-6.208 5.364-4.75 1.777-5.45 3.006-3.479 6.114 1.55 2.443.938 2.363 20.144 2.609l16.7.214v-.845c0-.841-.061-.845-11.543-.845-18.221 0-23.522-.606-24.667-2.819-.84-1.624-.155-2.493 2.488-3.159 4.037-1.017 6.848-3.346 7.776-6.444.447-1.492.742-1.755 3.356-2.995 3.365-1.598 4.639-3.154 5.83-7.125.755-2.516 2.122-4.258 3.342-4.258 2.33 0 4.653-4.041 6.958-12.104l1.514-5.296 2.473-.119c2.445-.118 2.473-.132 2.473-1.3 0-1.308-4.14-1.858-5.118-.68m-285.986 56.001-4.104.384-2.437 2.657-2.436 2.657.14 15.066.141 15.065 1.206 1.715c2.54 3.614 4.993 3.619 7.194.014 2.355-3.857 4.011-5.512 7.87-7.865.726-.443 1.654-1.343 2.063-2 2.649-4.263 3.52-5.34 5.667-7 1.32-1.021 2.803-2.451 3.296-3.178l.896-1.323-.896-1.596c-.493-.878-1.633-2.103-2.534-2.723-2.253-1.552-3.947-3.571-5.388-6.426-1.672-3.312-4.162-5.967-5.525-5.89-.577.032-2.896.232-5.153.443M0 190c0 .795.267.8 42.353.8h42.352l1.847 1.9 1.848 1.9.005 14c.007 15.615.498 27.436 1.36 32.698.532 3.246.517 3.763-.215 7.2-.513 2.411-.896 6.353-1.098 11.302-.299 7.356-.351 7.699-1.618 10.7-1.68 3.981-1.751 3.957-4.834-1.577-2.342-4.204-5.138-7.798-6.821-8.766-1.091-.628-3.107-3.472-4.52-6.377-1.232-2.534-3.693-5.38-4.654-5.38-.826 0-3.212-3.015-3.81-4.814-1.011-3.046-3.38-6.027-5.876-7.395-.594-.325-1.872-1.815-2.839-3.309-1.851-2.862-3.752-4.604-6.599-6.046l-1.719-.871-3.681.781c-2.024.429-5.031.993-6.681 1.253-7.704 1.212-12.164 2.865-15.2 5.634-3.101 2.827-11.684 5.567-17.443 5.567-1.89 0-2.157.099-2.157.8 0 2.757 17.054-1.172 21.576-4.971 3.65-3.067 8.486-4.747 17.953-6.236l5.728-.902 2.267 1.558c1.247.857 2.899 2.455 3.672 3.552.772 1.096 2.964 3.524 4.87 5.396 2.634 2.587 3.767 4.047 4.72 6.086.984 2.103 1.901 3.26 4.245 5.357 2.369 2.121 3.336 3.348 4.661 5.918 1.221 2.366 2.494 4.053 4.713 6.242 2.321 2.291 3.689 4.135 5.785 7.8 3.989 6.977 4.871 7.72 6.58 5.547 1.937-2.462 2.931-7.028 3.254-14.947.254-6.231.472-8 1.379-11.2 1.361-4.797 1.33-3.86.298-9.2-1.275-6.599-1.693-14.191-1.697-30.842L90 194.516l-2.435-2.658-2.436-2.658H42.565C.267 189.2 0 189.205 0 190m350.2-.17c-1.98.287-4.59.711-5.8.941s-3.962.683-6.115 1.006c-2.665.4-4.579.944-6 1.705L330.2 194.6l-.102 50.44-.101 50.441 2.437 2.659 2.437 2.66h32.564c32.298 0 32.565-.007 32.565-.8s-.267-.8-32.353-.8h-32.352l-1.847-1.9-1.848-1.9V194.813l1.9-.95c1.249-.625 2.928-1.033 4.9-1.189 1.65-.131 6.33-.603 10.4-1.049 6.515-.715 10.019-.813 29.3-.819 21.631-.006 21.9-.016 21.9-.806 0-1.007-43.015-1.154-49.8-.17m-233.778 2.663c.674.932 1.743 2.777 2.375 4.1 1.265 2.65 2.535 4.033 5.462 5.948 2.485 1.626 2.7 3.179.616 4.451-3.411 2.08-4.667 3.3-6.068 5.891-1.824 3.371-2.553 4.173-4.85 5.338-2.7 1.369-4.054 2.651-5.331 5.046-2.288 4.29-3.446 4.991-5.209 3.151-1.513-1.579-1.761-4.341-1.785-19.818l-.018-12 1.782-1.9 1.782-1.9h10.017zm191.978.466c-4.569.558-6.387 1.37-7.507 3.355-1.065 1.887-2.89 3.603-5.741 5.396-1.624 1.021-2.642 2.061-3.672 3.752-1.68 2.758-3.261 4.319-6.328 6.248-1.624 1.021-2.642 2.061-3.672 3.752-1.68 2.758-3.261 4.319-6.328 6.248-1.624 1.021-2.642 2.061-3.672 3.752-1.68 2.758-3.261 4.319-6.328 6.248-1.624 1.021-2.642 2.061-3.672 3.752-1.685 2.767-3.26 4.319-6.37 6.275-1.674 1.052-2.612 2.009-3.485 3.552-1.567 2.768-3.064 4.36-5.682 6.044-2.46 1.583-3.568 2.711-4.529 4.61-.873 1.727-3.746 4.599-5.471 5.47-1.877.948-3.479 2.52-4.407 4.325-.98 1.906-3.803 4.771-5.593 5.676-2.353 1.191-3.125 2.239-5.997 8.153l-2.81 5.786.465 4.822c.524 5.441.37 5.144 4.325 8.294l2.926 2.331h90.277l2.437-2.66 2.437-2.659-.101-50.441-.102-50.44-2.2-1.087c-2.439-1.206-3.392-1.263-9.2-.554m8.416 1.049 1.584.808V295.4l-1.848 1.9-1.847 1.9H225.32l-1.56-1.141c-3.558-2.601-3.622-2.733-3.931-8.168l-.28-4.908 1.579-3.392c.868-1.865 1.883-4.243 2.255-5.284.596-1.664.966-2.046 3.066-3.165 3.004-1.602 5.073-3.657 6.663-6.623 1.041-1.942 1.606-2.506 3.47-3.47 2.829-1.463 5.004-3.638 6.467-6.467.954-1.846 1.534-2.432 3.395-3.43 2.817-1.511 4.957-3.685 6.531-6.635 1.022-1.915 1.622-2.516 3.625-3.628 3.024-1.68 4.602-3.255 6.289-6.278 1.104-1.979 1.743-2.618 3.722-3.722 3.017-1.684 4.594-3.261 6.278-6.278 1.104-1.979 1.743-2.618 3.722-3.722 3.017-1.684 4.594-3.261 6.278-6.278 1.104-1.979 1.743-2.618 3.722-3.722 3.017-1.684 4.594-3.261 6.278-6.278 1.102-1.976 1.746-2.621 3.722-3.728 3.123-1.75 4.26-2.875 5.773-5.713 1.57-2.947 1.436-2.873 6.216-3.415 5.815-.659 6.467-.639 8.216.253m-213.377 65.633c-3.409 2.681-4.191 8.416-3.05 22.359.207 2.53.406 6.4.442 8.6.139 8.57 2.743 9.716 22.884 10.064 10.774.187 11.17.166 12.899-.671 2.082-1.008 4.586-3.749 4.586-5.022 0-1.086-3.102-4.609-5.117-5.812-2.094-1.249-3.962-3.083-5.073-4.978-1.068-1.822-3.924-4.602-5.664-5.513-1.388-.726-3.312-2.751-4.486-4.719-1.002-1.681-3.853-4.411-5.514-5.281-1.395-.73-3.313-2.753-4.505-4.751-2.311-3.872-5.542-5.739-7.402-4.276m3.178 2.144c.71.543 2.124 2.25 3.142 3.795 1.434 2.176 2.479 3.224 4.636 4.644 2.733 1.801 3.957 3.094 6.12 6.468.661 1.029 2.176 2.41 3.875 3.529 2.738 1.804 3.961 3.096 6.125 6.471.663 1.033 2.179 2.412 3.9 3.545 4.966 3.272 5.544 4.562 3.065 6.846l-1.719 1.585-6.381.265c-15.608.647-25.074-.519-26.546-3.27-1.15-2.148-1.654-30.458-.572-32.074 2.006-2.994 2.516-3.206 4.355-1.804M194 272.587c-.55.293-1.818 1.586-2.818 2.873-1.058 1.361-2.898 3.043-4.4 4.02-3.837 2.497-5.138 3.665-6.031 5.416-1.032 2.024-3.829 4.822-5.851 5.853-3.477 1.774-4.66 4.051-3.272 6.297 3.29 5.322 26.278 5.186 35.713-.212 2.945-1.685 2.917-1.625 3.204-6.886.29-5.337.42-5.082-3.437-6.789-3.235-1.432-5.394-3.328-7.753-6.807-2.378-3.509-3.869-4.557-5.355-3.765m2.092 2.113c.339.385 1.077 1.6 1.639 2.7 1.307 2.559 3.224 4.597 5.983 6.362 2.463 1.576 2.468 1.588 2.915 7.702l.269 3.665-1.203.622c-11.123 5.752-38.893 3.689-31.595-2.347.715-.592 2.289-1.646 3.497-2.342 1.671-.963 2.502-1.794 3.465-3.465 1.954-3.39 3.298-4.789 5.559-5.789 2.417-1.069 5.162-3.417 6.053-5.178.803-1.587 1.725-2.63 2.326-2.63.262 0 .753.315 1.092.7M149.8 308.432c-2.964.608-5.513.741-14.427.753-11.65.016-12.943.19-17.173 2.304-4.467 2.232-4.588 2.808-1.3 6.171 1.653 1.69 2.992 3.571 3.951 5.548 1.179 2.431 2.054 3.536 4.667 5.894 2.569 2.319 3.507 3.494 4.672 5.852 1.11 2.245 2.208 3.664 4.595 5.934 1.958 1.863 3.547 3.796 4.229 5.148 1.566 3.099 3.208 5.394 5.986 8.364 2.862 3.06 4.322 5.141 6.397 9.119 1.221 2.342 2.083 3.371 4.363 5.208 2.612 2.105 3.017 2.646 5.04 6.734 1.437 2.903 2.929 5.236 4.3 6.725 2.495 2.707 2.523 2.968.65 6.038-3.517 5.764-4.716 11.776-2.35 11.776.956 0 1-.105 1-2.42 0-2.45.606-4.189 1.806-5.185.835-.693 2.808-4.593 3.17-6.266.377-1.743-.533-3.36-3.564-6.332-1.983-1.944-2.697-3.001-3.571-5.289-1.435-3.755-2.985-5.826-5.626-7.516-2.471-1.58-2.457-1.562-3.847-4.826-1.49-3.495-3.759-6.751-6.968-10.001-1.879-1.902-3.523-4.122-5-6.752-1.348-2.399-2.741-4.323-3.597-4.965-2.957-2.218-5.098-4.726-5.775-6.763-.793-2.388-3.224-5.294-5.498-6.572-1.38-.776-1.891-1.474-3.408-4.656-.982-2.059-2.491-4.509-3.353-5.445-1.907-2.068-1.913-2.174-.191-3.347 3.927-2.674 4.971-2.845 17.422-2.858 7.469-.008 12.641-.199 15-.553 2.525-.379 4.555-.439 6.8-.2 1.76.187 10.67.448 19.8.58l16.6.241 4.946 1.376c2.72.757 5.465 1.645 6.1 1.973l1.154.597V400h3.204l-.102-42.68-.102-42.681-2.262-1.342c-1.245-.738-4.125-1.893-6.4-2.566L197 309.507l-14.6-.321c-8.415-.185-16.887-.586-20-.946-6.622-.765-8.036-.744-12.6.192m72.936 2.424c-1.175.912-2.721 2.207-3.436 2.879l-1.3 1.222V400h2v-84.691l1.1-1.114c.605-.612 1.802-1.627 2.66-2.254l1.56-1.141h89.385l1.847 1.9 1.848 1.9v42.7c0 42.433.005 42.7.8 42.7s.8-.267.8-42.742v-42.742l-2.435-2.658-2.436-2.658h-90.257zm109.699 1.002L330 314.516v42.742c0 42.475.005 42.742.8 42.742s.8-.267.8-42.7v-42.7l1.848-1.9 1.847-1.9h32.352c32.086 0 32.353-.007 32.353-.8s-.267-.8-32.565-.8h-32.564z"/><path id="path8" fill="#dcdcdc" d="M0 34.6v34.6h84.705l1.847-1.9 1.848-1.9V0H0zm101.6-1.9v32.7l1.848 1.9 1.847 1.9h89.164l5.071-1.424c2.788-.783 5.273-1.638 5.521-1.9.965-1.018 1.47-13.139 1.641-39.376l.172-26.5H101.6zm118.399-21.2c-.002 18.863.591 23.568 3.133 24.865l1.563.798.807-.882c.444-.484 1.115-1.957 1.49-3.272 1.125-3.939 3.01-6.103 6.284-7.218 1.73-.59 1.928-.798 2.553-2.679 1.012-3.047 3.339-5.169 7.005-6.388 2.425-.806 3.125-1.236 3.838-2.355 2.759-4.334 3.328-4.708 11.206-7.363l6.322-2.13.119-2.438.119-2.438H220zm125.282-9.054.119 2.447 6.542 2.138c6.78 2.216 8.855 3.352 10.012 5.481 1.317 2.424 2.456 3.434 4.561 4.048 4.077 1.189 7.885 4.843 7.885 7.566 0 .373 1.165 1.178 2.937 2.031 3.362 1.617 4.595 3.109 5.695 6.893.922 3.174 1.277 3.669 3.404 4.758 3.902 1.999 5.673 5.632 8.134 16.692.237 1.062.336 1.1 2.838 1.1H400V0h-54.838zM0 130v49.2h84.705l1.847-1.9 1.848-1.9V84.6l-1.848-1.9-1.847-1.9H0zm103.448-47.3-1.848 1.9.017 45.4.016 45.4 1.618 1.791 1.619 1.79 5.065.433c5.028.43 5.084.426 7.665-.625 1.43-.583 3.82-1.465 5.312-1.961 2.553-.848 2.771-1.018 3.725-2.901 1.383-2.728 3.715-5.16 6.248-6.513 2.822-1.508 3.411-2.063 4.284-4.038 1.029-2.325 3.266-4.681 5.524-5.817 2.622-1.319 3.625-2.258 4.483-4.197 1.061-2.4 3.381-4.784 5.812-5.974 2.415-1.181 3.219-2.007 4.571-4.695 1.134-2.254 3.491-4.495 5.803-5.517 1.939-.858 2.878-1.861 4.197-4.483 1.134-2.254 3.491-4.495 5.803-5.517 1.939-.858 2.878-1.861 4.197-4.483 1.134-2.254 3.491-4.495 5.803-5.517 1.962-.868 3.041-1.965 4.196-4.265 1.161-2.314 3.013-4.067 5.947-5.63 2.352-1.252 2.569-1.497 4.317-4.881 1.713-3.317 2.998-4.84 5.908-7 1.014-.753 1.1-1.075 1.477-5.52.521-6.156.739-5.859-5.573-7.625l-5.197-1.455h-89.142zm291.547 52.6c-.098.275-.81 2.711-1.582 5.413-2.182 7.645-4.545 11.687-6.831 11.687-1.22 0-2.587 1.742-3.342 4.258-1.191 3.971-2.465 5.527-5.83 7.125-2.614 1.24-2.909 1.503-3.356 2.995-.928 3.098-3.739 5.427-7.776 6.444-2.643.666-3.328 1.535-2.488 3.159 1.145 2.213 6.446 2.819 24.667 2.819H400v-44.4h-2.413c-1.567 0-2.475.175-2.592.5M0 215v24.2h2.157c5.759 0 14.342-2.74 17.443-5.567 3.036-2.769 7.496-4.422 15.2-5.634 1.65-.26 4.657-.824 6.681-1.253l3.681-.781 1.719.871c2.847 1.442 4.748 3.184 6.599 6.046.967 1.494 2.245 2.984 2.839 3.309 2.496 1.368 4.865 4.349 5.876 7.395.598 1.799 2.984 4.814 3.81 4.814.961 0 3.422 2.846 4.654 5.38 1.413 2.905 3.429 5.749 4.52 6.377 1.683.968 4.479 4.562 6.821 8.766 3.083 5.534 3.154 5.558 4.834 1.577 1.267-3.001 1.319-3.344 1.618-10.7.202-4.949.585-8.891 1.098-11.302.732-3.437.747-3.954.215-7.2-.862-5.262-1.353-17.083-1.36-32.698l-.005-14-1.848-1.9-1.847-1.9H0zm103.396-22.3-1.782 1.9.018 12c.024 15.477.272 18.239 1.785 19.818 1.763 1.84 2.921 1.139 5.209-3.151 1.277-2.395 2.631-3.677 5.331-5.046 2.297-1.165 3.026-1.967 4.85-5.338 1.401-2.591 2.657-3.811 6.068-5.891 2.084-1.272 1.869-2.825-.616-4.451-2.927-1.915-4.197-3.298-5.462-5.948-.632-1.323-1.701-3.168-2.375-4.1l-1.227-1.693h-10.017zm245.204-1.079c-3.52.4-7.93.854-9.8 1.01-2.334.194-3.995.58-5.3 1.232l-1.9.95V295.4l1.848 1.9 1.847 1.9H400V190.8l-22.5.047c-18.913.039-23.52.163-28.9.774m-40 2.134c-4.78.542-4.646.468-6.216 3.415-1.513 2.838-2.65 3.963-5.773 5.713-1.976 1.107-2.62 1.752-3.722 3.728-1.684 3.017-3.261 4.594-6.278 6.278-1.979 1.104-2.618 1.743-3.722 3.722-1.684 3.017-3.261 4.594-6.278 6.278-1.979 1.104-2.618 1.743-3.722 3.722-1.684 3.017-3.261 4.594-6.278 6.278-1.979 1.104-2.618 1.743-3.722 3.722-1.687 3.023-3.265 4.598-6.289 6.278-2.003 1.112-2.603 1.713-3.625 3.628-1.574 2.95-3.714 5.124-6.531 6.635-1.861.998-2.441 1.584-3.395 3.43-1.463 2.829-3.638 5.004-6.467 6.467-1.864.964-2.429 1.528-3.47 3.47-1.59 2.966-3.659 5.021-6.663 6.623-2.1 1.119-2.47 1.501-3.066 3.165-.372 1.041-1.387 3.419-2.255 5.284l-1.579 3.392.28 4.908c.309 5.435.373 5.567 3.931 8.168l1.56 1.141h89.385l1.847-1.9 1.848-1.9V194.816l-1.584-.808c-1.749-.892-2.401-.912-8.216-.253M103.732 261.7c-2.109 2.352-2.132 2.457-2.132 9.93 0 9.018.722 23.076 1.234 24.033 1.472 2.751 10.938 3.917 26.546 3.27l6.381-.265 1.719-1.585c2.479-2.284 1.901-3.574-3.065-6.846-1.721-1.133-3.237-2.512-3.9-3.545-2.164-3.375-3.387-4.667-6.125-6.471-1.699-1.119-3.214-2.5-3.875-3.529-2.163-3.374-3.387-4.667-6.12-6.468-2.157-1.42-3.202-2.468-4.636-4.644-2.848-4.324-4.611-5.459-6.027-3.88m90.178 13c-.337.385-.894 1.254-1.236 1.93-.891 1.761-3.636 4.109-6.053 5.178-2.261 1-3.605 2.399-5.559 5.789-.963 1.671-1.794 2.502-3.465 3.465-7.333 4.227-6.405 6.537 3.029 7.538 10.758 1.142 19.209.181 25.069-2.849l1.203-.622-.269-3.665c-.447-6.114-.452-6.126-2.915-7.702-2.759-1.765-4.676-3.803-5.983-6.362-1.181-2.311-2.056-3.4-2.731-3.4-.262 0-.752.315-1.09.7m-42.51 35.525c-2.063.337-7.322.536-14.8.558-12.668.039-13.693.207-17.622 2.882-1.722 1.173-1.716 1.279.191 3.347.862.936 2.371 3.386 3.353 5.445 1.517 3.182 2.028 3.88 3.408 4.656 2.274 1.278 4.705 4.184 5.498 6.572.677 2.037 2.818 4.545 5.775 6.763.856.642 2.249 2.566 3.597 4.965 1.477 2.63 3.121 4.85 5 6.752 3.209 3.25 5.478 6.506 6.968 10.001 1.39 3.264 1.376 3.246 3.847 4.826 2.641 1.69 4.191 3.761 5.626 7.516.874 2.288 1.588 3.345 3.571 5.289 3.031 2.972 3.941 4.589 3.564 6.332-.362 1.673-2.335 5.573-3.17 6.266-1.2.996-1.806 2.735-1.806 5.185V400h42.4v-85.179l-1.154-.597c-.635-.328-3.411-1.233-6.17-2.01l-5.017-1.414-12.529-.004c-10.737-.003-19.2-.312-25.73-.939-.88-.085-3.04.081-4.8.368m72.36 1.716c-.858.627-2.055 1.642-2.66 2.254l-1.1 1.114V400h98.4v-85.4l-1.848-1.9-1.847-1.9H225.32zm109.688.759-1.848 1.9V400H400v-89.2h-64.705z"/></g></svg>